<svg width="215" height="162" viewBox="0 0 215 162" fill="none" xmlns="http://www.w3.org/2000/svg">
<path d="M38.26 107.76C38.14 107.64 38 107.32 37.84 106.8C37.68 106.32 37.54 105.8 37.42 105.24C37.34 104.68 37.28 104.28 37.24 104.04C37.24 103.96 37.22 103.86 37.18 103.74C37.18 103.62 37.18 103.5 37.18 103.38C37.14 103.18 37.1 102.86 37.06 102.42C37.02 102.02 36.98 101.72 36.94 101.52C36.94 101.32 36.94 101.1 36.94 100.86C36.94 100.58 36.96 100.3 37 100.02C37.08 99.58 37.14 99.16 37.18 98.76C37.22 98.32 37.24 97.96 37.24 97.68C37.24 97.4 37.2 97.14 37.12 96.9C37 97.18 36.86 97.42 36.7 97.62C36.54 97.78 36.36 97.96 36.16 98.16C36.12 98.12 36.08 98.1 36.04 98.1C36.04 98.1 36.02 98.12 35.98 98.16C35.98 98.2 35.94 98.28 35.86 98.4L35.2 99C35.16 99.04 35.1 99.12 35.02 99.24C34.98 99.36 34.92 99.4 34.84 99.36L34.6 99.78L33.7 100.32C33.58 100.44 33.46 100.62 33.34 100.86C33.22 101.06 33.08 101.22 32.92 101.34C32.4 101.78 31.86 102.2 31.3 102.6C30.78 103 30.22 103.4 29.62 103.8C29.42 103.92 29.22 104 29.02 104.04C28.86 104.12 28.7 104.24 28.54 104.4C28.38 104.56 28.28 104.58 28.24 104.46L27.7 104.82C27.7 104.82 27.7 104.8 27.7 104.76C27.7 104.76 27.68 104.76 27.64 104.76C27.6 104.76 27.52 104.8 27.4 104.88C27.28 104.96 27.1 105.06 26.86 105.18L26.5 105.36V105.24L25.78 105.66L25.72 105.6C25.64 105.6 25.54 105.58 25.42 105.54C25.3 105.54 25.2 105.58 25.12 105.66V105.78C24.92 105.94 24.68 106.04 24.4 106.08C24.12 106.12 23.86 106.18 23.62 106.26L24.16 105.6L22.66 106.38C22.38 106.34 22.14 106.34 21.94 106.38C21.78 106.46 21.6 106.5 21.4 106.5C21.32 106.5 21.24 106.48 21.16 106.44C21.08 106.44 20.98 106.42 20.86 106.38C20.82 106.42 20.72 106.44 20.56 106.44C20.32 106.44 20.04 106.4 19.72 106.32C19.4 106.24 19.2 106.18 19.12 106.14L18.52 106.02C18.16 105.82 17.82 105.6 17.5 105.36C17.22 105.12 16.96 104.84 16.72 104.52C16.52 104.24 16.32 103.9 16.12 103.5C15.96 103.14 15.88 102.84 15.88 102.6V102.18C15.88 101.38 15.98 100.68 16.18 100.08C16.42 99.44 16.76 98.62 17.2 97.62L17.44 97.44C17.48 97.32 17.52 97.2 17.56 97.08C17.6 96.96 17.64 96.88 17.68 96.84C18 96.24 18.32 95.6 18.64 94.92C18.96 94.2 19.34 93.48 19.78 92.76C20.34 91.92 20.92 91.1 21.52 90.3C22.12 89.46 22.54 88.72 22.78 88.08C22.82 88.04 22.96 87.8 23.2 87.36C23.44 86.88 23.68 86.44 23.92 86.04C24.16 85.6 24.28 85.4 24.28 85.44C24.28 85.44 24.4 85.2 24.64 84.72C24.88 84.24 25.14 83.72 25.42 83.16C25.7 82.6 25.9 82.2 26.02 81.96C26.34 81.08 26.54 80.44 26.62 80.04C26.74 79.6 26.8 79.12 26.8 78.6C26.8 78.44 26.82 78.3 26.86 78.18C26.94 78.06 26.98 77.94 26.98 77.82V77.7C26.98 77.46 26.94 77.16 26.86 76.8C26.78 76.44 26.76 76.2 26.8 76.08L26.56 75.24C26.28 75.04 26.14 74.86 26.14 74.7C26.14 74.54 25.86 74.36 25.3 74.16L25.06 73.92C24.94 74.04 24.8 74.1 24.64 74.1C24.36 74.1 24.16 73.98 24.04 73.74L23.62 73.8C23.58 73.72 23.32 73.64 22.84 73.56C22.4 73.48 22.14 73.48 22.06 73.56L21.82 73.38C21.7 73.38 21.52 73.38 21.28 73.38C21.08 73.38 20.94 73.42 20.86 73.5C20.82 73.5 20.76 73.52 20.68 73.56C20.64 73.6 20.58 73.6 20.5 73.56C20.46 73.56 20.42 73.56 20.38 73.56C20.38 73.52 20.36 73.5 20.32 73.5C20.16 73.5 20 73.54 19.84 73.62C19.68 73.66 19.52 73.72 19.36 73.8C19.32 73.84 19.26 73.88 19.18 73.92C19.1 73.96 19.02 73.98 18.94 73.98C18.78 74.06 18.64 74.1 18.52 74.1C18.36 74.14 18.2 74.16 18.04 74.16C17.88 74.16 17.7 74.2 17.5 74.28C17.34 74.32 17.14 74.36 16.9 74.4C16.7 74.44 16.5 74.54 16.3 74.7L16.24 74.64L14.74 75.18L14.26 75.3L13.96 75.66C13.92 75.7 13.9 75.76 13.9 75.84C13.9 76 14.04 76.08 14.32 76.08C14.64 76.08 14.68 76.16 14.44 76.32C14.12 76.52 13.76 76.7 13.36 76.86C12.96 76.98 12.6 77.14 12.28 77.34C12.08 77.5 11.92 77.66 11.8 77.82C11.72 77.94 11.54 77.98 11.26 77.94L11.08 78L10.3 78.78C9.9 78.74 9.46 78.9 8.98 79.26C8.5 79.58 8.1 79.84 7.78 80.04L7.66 79.98C7.58 80.02 7.5 80.12 7.42 80.28C7.34 80.4 7.24 80.5 7.12 80.58C6.76 80.82 6.4 81.06 6.04 81.3C5.68 81.54 5.34 81.8 5.02 82.08L4.84 82.02L4.66 82.56L4.48 82.44C4.12 82.84 3.78 83.18 3.46 83.46C3.14 83.74 2.86 84.16 2.62 84.72L2.74 85.44C3.02 85.6 3.34 85.68 3.7 85.68L3.82 85.56C4.74 85.56 5.66 85.42 6.58 85.14L6.64 85.2L7.06 84.96L7.12 85.02L8.8 84.42L8.86 84.48C8.86 84.44 8.98 84.34 9.22 84.18C9.46 84.02 9.48 84.08 9.28 84.36C9.12 84.64 8.86 84.9 8.5 85.14C8.14 85.34 7.8 85.42 7.48 85.38L7.24 85.68L6.76 85.74C6.76 85.66 6.74 85.62 6.7 85.62C6.66 85.62 6.6 85.68 6.52 85.8C6.44 85.88 6.38 85.94 6.34 85.98C5.54 86.26 4.9 86.44 4.42 86.52C3.94 86.6 3.28 86.64 2.44 86.64H2.38C2.26 86.64 2.14 86.68 2.02 86.76C1.94 86.8 1.84 86.8 1.72 86.76C1.24 86.56 0.92 86.34 0.76 86.1C0.56 85.82 0.46 85.5 0.46 85.14C0.46 84.5 0.68 83.84 1.12 83.16C1.56 82.44 1.96 81.88 2.32 81.48C2.52 81.24 2.78 80.96 3.1 80.64C3.46 80.28 3.8 80.12 4.12 80.16L4.18 79.86L4.72 79.56L4.96 79.2L5.02 79.32L6.22 78.24L6.28 78.3L7.48 77.46L7.6 77.58C7.64 77.5 7.7 77.42 7.78 77.34C7.86 77.26 7.9 77.32 7.9 77.52L8.32 77.04L8.44 77.1C8.88 76.58 9.22 76.32 9.46 76.32C9.7 76.28 10.06 76.14 10.54 75.9C10.86 75.74 11.18 75.58 11.5 75.42C11.82 75.22 12.16 75.06 12.52 74.94L13.12 74.64C13.2 74.6 13.26 74.6 13.3 74.64C13.38 74.64 13.44 74.62 13.48 74.58L14.38 74.16V74.28C14.5 74.2 14.74 74.08 15.1 73.92C15.46 73.72 15.82 73.56 16.18 73.44C16.54 73.32 16.76 73.32 16.84 73.44C16.88 73.52 16.96 73.56 17.08 73.56C17.24 73.56 17.4 73.48 17.56 73.32C17.72 73.16 17.88 73.06 18.04 73.02C18.2 72.98 18.38 72.94 18.58 72.9C18.78 72.86 18.96 72.86 19.12 72.9C19.2 72.9 19.26 72.92 19.3 72.96C19.38 72.96 19.42 72.9 19.42 72.78H20.62C20.86 72.78 21.08 72.78 21.28 72.78C21.52 72.78 21.68 72.8 21.76 72.84C21.8 72.76 21.94 72.72 22.18 72.72C22.46 72.68 22.62 72.64 22.66 72.6C22.86 72.72 23.04 72.8 23.2 72.84C23.36 72.84 23.5 72.84 23.62 72.84C23.98 72.84 24.22 72.92 24.34 73.08C24.62 73.08 24.88 73.08 25.12 73.08C25.4 73.08 25.56 73.12 25.6 73.2C26.12 73.52 26.7 73.8 27.34 74.04C28.02 74.28 28.58 74.9 29.02 75.9C29.38 76.66 29.56 77.48 29.56 78.36C29.56 78.56 29.56 78.78 29.56 79.02C29.56 79.22 29.52 79.44 29.44 79.68L29.32 80.28L28.9 81.72C28.82 82.04 28.6 82.56 28.24 83.28C27.92 84 27.68 84.52 27.52 84.84C27.44 85 27.32 85.28 27.16 85.68C27 86.04 26.84 86.3 26.68 86.46C26.68 86.46 26.54 86.68 26.26 87.12C26.02 87.52 25.76 87.92 25.48 88.32C25.24 88.72 25.1 88.94 25.06 88.98C24.66 89.82 24.32 90.48 24.04 90.96C23.8 91.44 23.56 91.86 23.32 92.22C23.12 92.58 22.86 93 22.54 93.48C22.3 93.84 22.06 94.16 21.82 94.44C21.62 94.72 21.36 95.16 21.04 95.76L20.62 96.54C20.5 97.06 20.34 97.42 20.14 97.62C20.14 97.66 20.08 97.68 19.96 97.68L19.6 98.34C19.68 98.34 19.68 98.42 19.6 98.58C19.56 98.82 19.44 99.26 19.24 99.9C19.04 100.54 18.9 100.96 18.82 101.16L18.52 101.82C18.4 102.1 18.36 102.28 18.4 102.36C18.48 102.44 18.5 102.58 18.46 102.78C18.46 103.66 18.78 104.24 19.42 104.52C20.06 104.8 20.86 105.1 21.82 105.42C21.86 105.34 21.9 105.32 21.94 105.36C22.02 105.4 22.08 105.42 22.12 105.42H22.24C22.44 105.42 22.7 105.38 23.02 105.3C23.38 105.26 23.58 105.28 23.62 105.36C23.86 105.24 24.08 105.18 24.28 105.18C24.48 105.18 24.7 105.12 24.94 105C24.98 105.04 25.2 104.96 25.6 104.76C26 104.6 26.26 104.46 26.38 104.34C26.54 104.34 26.74 104.26 26.98 104.1C27.22 103.98 27.36 103.94 27.4 103.98L27.58 103.74C27.86 103.66 28.16 103.52 28.48 103.32C28.84 103.12 29.02 103.06 29.02 103.14L29.44 102.84C29.4 102.8 29.38 102.76 29.38 102.72C29.38 102.64 29.48 102.56 29.68 102.48C29.88 102.44 30 102.42 30.04 102.42V102.3L30.46 102L30.64 101.88C30.68 101.84 30.72 101.82 30.76 101.82C30.84 101.82 30.9 101.8 30.94 101.76C31.02 101.64 31.16 101.46 31.36 101.22C31.56 100.98 31.72 100.84 31.84 100.8C32.16 100.68 32.46 100.46 32.74 100.14C33.06 99.82 33.34 99.54 33.58 99.3C33.66 99.22 33.8 99.12 34 99C34.2 98.84 34.32 98.78 34.36 98.82C34.44 98.66 34.58 98.44 34.78 98.16C34.98 97.88 35.16 97.72 35.32 97.68L35.56 97.14C35.76 97.06 35.9 96.96 35.98 96.84C36.1 96.68 36.26 96.54 36.46 96.42C36.54 96.1 36.64 95.86 36.76 95.7C36.92 95.5 37.08 95.26 37.24 94.98C37.2 94.86 37.18 94.6 37.18 94.2C37.18 93.68 37.24 93.08 37.36 92.4C37.48 91.72 37.64 91.2 37.84 90.84V90.78C37.84 90.66 37.9 90.5 38.02 90.3C38.18 90.06 38.24 89.78 38.2 89.46C38.4 89.34 38.54 89.06 38.62 88.62C38.74 88.14 38.86 87.8 38.98 87.6C39.02 87.52 39.12 87.4 39.28 87.24C39.44 87.04 39.48 86.92 39.4 86.88C39.72 86.44 39.94 85.94 40.06 85.38C40.18 84.82 40.4 84.34 40.72 83.94L40.84 84.06C40.92 83.94 40.96 83.82 40.96 83.7C41 83.54 41.06 83.4 41.14 83.28C41.22 83.2 41.36 82.98 41.56 82.62C41.8 82.26 42.02 81.92 42.22 81.6C42.46 81.24 42.6 81.06 42.64 81.06L42.88 80.46C43 80.46 43.12 80.4 43.24 80.28C43.4 80.16 43.5 80.06 43.54 79.98C43.54 79.82 43.66 79.62 43.9 79.38C44.14 79.14 44.28 79.1 44.32 79.26C44.64 78.94 44.9 78.58 45.1 78.18C45.34 77.78 45.7 77.44 46.18 77.16C46.26 77.08 46.54 76.94 47.02 76.74C47.54 76.5 47.8 76.34 47.8 76.26C48.04 76.18 48.26 76.14 48.46 76.14C48.78 76.14 49.1 76.18 49.42 76.26C49.74 76.34 50.02 76.42 50.26 76.5L50.44 76.56C50.76 76.04 50.98 75.36 51.1 74.52C51.14 74.32 51.24 74.24 51.4 74.28C51.6 74.28 51.7 74.38 51.7 74.58C51.7 74.94 51.68 75.34 51.64 75.78C51.6 76.18 51.52 76.58 51.4 76.98C51.6 77.06 51.78 77.14 51.94 77.22C52.1 77.3 52.26 77.36 52.42 77.4C52.62 77.44 52.8 77.58 52.96 77.82C53.12 78.06 53.2 78.18 53.2 78.18C53.12 78.46 53.04 78.6 52.96 78.6C52.88 78.56 52.72 78.54 52.48 78.54C52.44 78.54 52.38 78.56 52.3 78.6C52.26 78.6 52.2 78.6 52.12 78.6C52.04 78.6 51.94 78.6 51.82 78.6C51.7 78.56 51.58 78.54 51.46 78.54C51.22 78.54 51 78.6 50.8 78.72C50.52 78.96 50.3 79.24 50.14 79.56C50.02 79.84 49.86 80.1 49.66 80.34C49.62 80.38 49.48 80.58 49.24 80.94C49.04 81.3 48.88 81.46 48.76 81.42C48.32 81.98 47.98 82.42 47.74 82.74C47.5 83.06 47.26 83.38 47.02 83.7C46.82 83.98 46.5 84.42 46.06 85.02C45.94 85.34 45.66 85.8 45.22 86.4C44.82 86.96 44.4 87.52 43.96 88.08C43.52 88.64 43.18 89.06 42.94 89.34C42.62 89.74 42.24 90.18 41.8 90.66C41.36 91.14 41 91.6 40.72 92.04C40.76 92.16 40.64 92.34 40.36 92.58C40.08 92.78 39.9 92.92 39.82 93C39.9 93.2 39.86 93.58 39.7 94.14C39.58 94.66 39.42 95.22 39.22 95.82C39.06 96.38 38.94 96.82 38.86 97.14C38.94 97.1 38.96 97.22 38.92 97.5C38.88 97.78 38.82 98.1 38.74 98.46C38.66 98.78 38.6 99.02 38.56 99.18C38.52 99.54 38.48 99.92 38.44 100.32C38.44 100.72 38.4 101.14 38.32 101.58C38.32 101.74 38.3 101.88 38.26 102C38.26 102.08 38.26 102.16 38.26 102.24C38.26 102.48 38.28 102.68 38.32 102.84C38.36 103.04 38.38 103.3 38.38 103.62C38.38 103.98 38.34 104.38 38.26 104.82C38.22 105.26 38.22 105.64 38.26 105.96C38.26 106.08 38.24 106.16 38.2 106.2C38.2 106.28 38.2 106.34 38.2 106.38C38.2 106.5 38.22 106.58 38.26 106.62C38.34 106.7 38.42 106.86 38.5 107.1C38.54 107.06 38.56 107.1 38.56 107.22C38.56 107.34 38.52 107.46 38.44 107.58C38.4 107.74 38.34 107.8 38.26 107.76ZM40.84 90.66C40.92 90.58 41.04 90.44 41.2 90.24C41.36 90.04 41.42 89.86 41.38 89.7C41.46 89.62 41.76 89.24 42.28 88.56C42.84 87.84 43.46 87.04 44.14 86.16C44.82 85.24 45.4 84.44 45.88 83.76C46.4 83.04 46.68 82.62 46.72 82.5C47 82.34 47.28 82.02 47.56 81.54C47.84 81.06 48.14 80.58 48.46 80.1C48.82 79.58 49.2 79.18 49.6 78.9C49.6 78.86 49.6 78.84 49.6 78.84C49.64 78.8 49.66 78.76 49.66 78.72C49.66 78.6 49.6 78.54 49.48 78.54C49.32 78.54 49.12 78.6 48.88 78.72C48.64 78.84 48.48 78.94 48.4 79.02L48.34 78.96C48.22 78.96 48.08 79.06 47.92 79.26C47.8 79.42 47.72 79.54 47.68 79.62C47.4 79.78 47.14 79.98 46.9 80.22L45.58 81.6C45.06 82.12 44.62 82.64 44.26 83.16C43.94 83.64 43.62 84.2 43.3 84.84C43.26 84.92 43.1 85.18 42.82 85.62C42.58 86.06 42.42 86.28 42.34 86.28C41.94 87 41.64 87.7 41.44 88.38C41.24 89.02 40.98 89.72 40.66 90.48L40.84 90.66ZM47.2909 101.88C46.8909 101.88 46.4709 101.8 46.0309 101.64C45.5909 101.44 45.4309 101.22 45.5509 100.98C45.7109 100.66 45.8909 100.34 46.0909 100.02C46.3309 99.66 46.5509 99.28 46.7509 98.88L47.4109 97.62C47.4909 97.42 47.5709 97.28 47.6509 97.2C47.7709 97.08 47.8709 96.94 47.9509 96.78C47.9909 96.74 48.0109 96.64 48.0109 96.48C48.0109 96.28 48.0909 96.06 48.2509 95.82C48.4509 95.54 48.5909 95.28 48.6709 95.04C48.7109 95 48.7509 95.12 48.7909 95.4C48.8309 95.68 48.9309 95.66 49.0909 95.34C49.1309 95.3 49.1109 95.24 49.0309 95.16C48.9909 95.08 48.9709 95 48.9709 94.92C48.9709 94.84 48.9909 94.8 49.0309 94.8C49.1109 94.76 49.1509 94.72 49.1509 94.68C49.1909 94.56 49.1509 94.52 49.0309 94.56C48.9509 94.56 48.9109 94.54 48.9109 94.5C48.9909 94.38 49.0709 94.3 49.1509 94.26C49.2709 94.22 49.3509 94.16 49.3909 94.08C49.3909 94 49.3509 93.96 49.2709 93.96C49.2309 93.92 49.2309 93.88 49.2709 93.84C49.4709 93.28 49.6909 92.62 49.9309 91.86C50.1709 91.1 50.3509 90.4 50.4709 89.76C50.4709 89.76 50.4309 89.74 50.3509 89.7C50.2709 89.62 50.2309 89.54 50.2309 89.46L49.8109 89.16C49.3309 89.6 48.8109 89.98 48.2509 90.3C48.2109 90.34 48.1309 90.36 48.0109 90.36C47.8509 90.36 47.7509 90.28 47.7109 90.12C47.6709 89.96 47.7309 89.82 47.8909 89.7C48.0909 89.58 48.2509 89.5 48.3709 89.46C48.4909 89.38 48.6309 89.26 48.7909 89.1C48.8709 89.02 48.9109 88.94 48.9109 88.86C48.9509 88.78 48.9909 88.7 49.0309 88.62L49.2709 88.32C49.2709 88.12 49.3109 87.96 49.3909 87.84C49.4709 87.76 49.5309 87.72 49.5709 87.72C49.6109 87.72 49.6309 87.72 49.6309 87.72V87.6C49.6309 87.44 49.6909 87.34 49.8109 87.3C49.9709 87.26 50.0509 87.2 50.0509 87.12C50.1309 86.56 50.6109 86.14 51.4909 85.86C52.3709 85.58 53.1509 85.44 53.8309 85.44C54.5109 85.44 54.8509 85.54 54.8509 85.74C54.8509 85.86 54.7309 86 54.4909 86.16C54.3709 86.24 54.1709 86.42 53.8909 86.7C53.6109 86.98 53.3509 87.32 53.1109 87.72L52.6909 88.44L52.2709 88.98C51.9909 89.62 51.5909 90.6 51.0709 91.92C50.5509 93.24 50.0109 94.9 49.4509 96.9C49.5709 96.74 49.8509 96.4 50.2909 95.88C50.7309 95.36 51.2509 94.76 51.8509 94.08C52.4509 93.4 53.0309 92.76 53.5909 92.16C54.1509 91.52 54.6109 91.02 54.9709 90.66L55.2709 90.48C55.3509 90.4 55.4309 90.3 55.5109 90.18C55.6309 90.02 55.7309 89.9 55.8109 89.82C55.8509 89.78 55.8709 89.86 55.8709 90.06C55.9109 90.22 55.9509 90.28 55.9909 90.24C56.1509 90.12 56.2309 89.94 56.2309 89.7C56.2709 89.46 56.3709 89.3 56.5309 89.22C56.9709 88.86 57.5709 88.36 58.3309 87.72C59.1309 87.04 59.9509 86.64 60.7909 86.52C60.8709 86.44 60.9909 86.42 61.1509 86.46C61.3509 86.46 61.4909 86.44 61.5709 86.4C61.6509 86.4 61.7109 86.38 61.7509 86.34C61.7909 86.3 61.8909 86.28 62.0509 86.28C62.1309 86.28 62.2909 86.34 62.5309 86.46C62.8109 86.58 62.9709 86.74 63.0109 86.94C63.2509 87.1 63.3709 87.34 63.3709 87.66C63.3709 88.22 63.0709 88.64 62.4709 88.92C62.2709 89.12 62.0509 89.32 61.8109 89.52C61.5709 89.68 61.3309 89.86 61.0909 90.06C61.0109 90.14 60.9509 90.18 60.9109 90.18C60.6309 90.42 60.3909 90.68 60.1909 90.96C59.9909 91.24 59.8909 91.6 59.8909 92.04C59.8909 92.08 59.9309 92.14 60.0109 92.22C60.0909 92.26 60.1109 92.3 60.0709 92.34C60.1909 92.46 60.3709 92.54 60.6109 92.58C60.8509 92.58 61.0909 92.58 61.3309 92.58C61.7309 92.58 62.3309 92.42 63.1309 92.1H63.2509C63.2909 92.1 63.3109 92.12 63.3109 92.16C63.3109 92.24 63.2309 92.38 63.0709 92.58C62.9109 92.74 62.7309 92.86 62.5309 92.94C62.0909 93.1 61.6309 93.2 61.1509 93.24C60.6709 93.24 60.3309 93.24 60.1309 93.24C59.4109 93.24 58.9509 93.1 58.7509 92.82C58.5909 92.54 58.4309 92.2 58.2709 91.8V91.5L58.5709 91.2C58.5309 91.08 58.4709 90.96 58.3909 90.84C58.3109 90.72 58.2709 90.58 58.2709 90.42C58.2709 90.02 58.4309 89.56 58.7509 89.04C58.3109 89.16 57.7509 89.5 57.0709 90.06C56.4309 90.58 55.7709 91.2 55.0909 91.92C54.4109 92.6 53.7909 93.28 53.2309 93.96C52.6709 94.6 52.2309 95.12 51.9109 95.52C51.7909 95.68 51.6509 95.78 51.4909 95.82C51.3709 95.82 51.2709 95.88 51.1909 96C51.1509 96.04 51.1909 96.06 51.3109 96.06C51.4709 96.06 51.5309 96.08 51.4909 96.12C50.9709 96.92 50.4109 97.8 49.8109 98.76C49.2509 99.72 48.6909 100.66 48.1309 101.58C48.0109 101.78 47.7309 101.88 47.2909 101.88ZM66.3048 103.02C65.3448 103.14 64.6648 103 64.2648 102.6C63.8648 102.2 63.5048 101.8 63.1848 101.4C63.1448 101.28 63.0248 101.28 62.8248 101.4C62.6648 101.48 62.5448 101.46 62.4648 101.34C62.3848 101.18 62.2848 100.92 62.1648 100.56C62.0448 100.16 62.0248 99.8 62.1048 99.48C62.1848 99.32 62.3448 99.12 62.5848 98.88C62.8248 98.64 62.9848 98.46 63.0648 98.34C63.1048 98.34 63.2648 98.22 63.5448 97.98C63.8648 97.7 64.1448 97.4 64.3848 97.08C64.5448 96.36 64.7048 95.66 64.8648 94.98C65.0648 94.26 65.3648 93.46 65.7648 92.58V92.28C65.7648 92.16 65.7648 92.04 65.7648 91.92C65.8048 91.8 65.8448 91.68 65.8848 91.56C66.0448 91.24 66.1848 91.04 66.3048 90.96C66.4648 90.84 66.6048 90.6 66.7248 90.24C66.8448 89.92 66.9448 89.56 67.0248 89.16C67.1448 88.76 67.2848 88.5 67.4448 88.38C67.4848 88.38 67.5048 88.38 67.5048 88.38C67.5048 88.34 67.5248 88.32 67.5648 88.32C67.6448 88.32 67.7248 88.38 67.8048 88.5C67.8848 88.58 67.9448 88.42 67.9848 88.02L67.9248 87.96C67.9248 87.88 67.9448 87.78 67.9848 87.66C68.0648 87.54 68.0848 87.46 68.0448 87.42V87.24C68.0448 87 68.1248 86.78 68.2848 86.58C68.4848 86.34 68.6648 86.08 68.8248 85.8C68.9048 85.68 69.0648 85.62 69.3048 85.62C69.5448 85.58 69.6448 85.52 69.6048 85.44L69.4248 84.6C69.5048 84.28 69.6648 84.1 69.9048 84.06H70.0848C70.2048 83.54 70.3048 83.16 70.3848 82.92C70.5048 82.68 70.6448 82.48 70.8048 82.32L71.2848 81.84C71.5648 81.56 71.7648 81.3 71.8848 81.06C72.0448 80.82 72.2048 80.54 72.3648 80.22C72.4448 80.06 72.5448 79.92 72.6648 79.8C72.8248 79.68 72.9648 79.54 73.0848 79.38C73.1648 79.3 73.1848 79.18 73.1448 79.02C73.1448 78.86 73.1648 78.74 73.2048 78.66C73.5248 78.18 73.9048 77.7 74.3448 77.22C74.7848 76.7 75.2048 76.24 75.6048 75.84C75.7248 75.64 75.8448 75.44 75.9648 75.24C76.1248 75.04 76.2848 74.84 76.4448 74.64C76.6848 74.36 76.9448 74.16 77.2248 74.04C77.5048 73.92 77.7848 73.74 78.0648 73.5C78.1448 73.42 78.1848 73.3 78.1848 73.14C78.1848 72.94 78.2248 72.8 78.3048 72.72C79.7048 71.6 81.2048 70.66 82.8048 69.9C84.4448 69.14 85.7048 68.76 86.5848 68.76C86.9048 68.76 87.2048 68.78 87.4848 68.82C87.8048 68.86 88.1048 68.92 88.3848 69H88.5048C88.7048 69 88.9048 69.04 89.1048 69.12C89.3048 69.2 89.4848 69.28 89.6448 69.36C89.8048 69.36 90.0048 69.4 90.2448 69.48C90.4448 69.56 90.5648 69.68 90.6048 69.84C90.6448 70 90.6048 70.12 90.4848 70.2C90.4448 70.24 90.3848 70.24 90.3048 70.2C90.2248 70.16 90.1448 70.14 90.0648 70.14C89.9848 70.14 89.9048 70.1 89.8248 70.02C89.7448 69.94 89.6648 69.88 89.5848 69.84C89.4248 69.84 89.2648 69.86 89.1048 69.9C88.9848 69.94 88.8448 69.96 88.6848 69.96C88.2448 69.96 87.9648 69.92 87.8448 69.84C87.7248 69.72 87.4848 69.7 87.1248 69.78C87.0848 69.78 86.9648 69.8 86.7648 69.84C86.5648 69.88 86.4248 69.9 86.3448 69.9C84.9048 70.26 83.6448 70.86 82.5648 71.7C81.4848 72.5 80.5248 73.4 79.6848 74.4C78.8848 75.4 78.1048 76.36 77.3448 77.28C76.9848 78 76.6248 78.58 76.2648 79.02C76.2248 79.06 76.1848 79.04 76.1448 78.96C76.1048 78.88 76.0648 78.88 76.0248 78.96C75.9048 79.08 75.8048 79.28 75.7248 79.56C75.6848 79.8 75.6048 80 75.4848 80.16C75.4448 80.2 75.4048 80.2 75.3648 80.16C75.3648 80.12 75.3248 80.1 75.2448 80.1C75.1248 80.1 75.1048 80.18 75.1848 80.34C75.3048 80.46 75.3248 80.56 75.2448 80.64C74.7648 81.32 74.1648 82.02 73.4448 82.74C72.7648 83.46 72.1448 84.22 71.5848 85.02C70.9448 86.02 70.3248 87 69.7248 87.96C69.1248 88.88 68.5448 89.8 67.9848 90.72C67.9448 90.76 67.8848 90.82 67.8048 90.9C67.7248 90.94 67.6648 91 67.6248 91.08C67.5848 91.12 67.5848 91.18 67.6248 91.26C67.6648 91.3 67.6648 91.36 67.6248 91.44C67.2248 92.08 66.9448 92.6 66.7848 93C66.6248 93.36 66.4448 93.74 66.2448 94.14C66.1648 94.34 66.0848 94.6 66.0048 94.92C65.9648 95.24 65.9048 95.48 65.8248 95.64C65.9448 95.48 66.3248 95.08 66.9648 94.44C67.6448 93.76 68.4448 92.96 69.3648 92.04C70.3248 91.12 71.2648 90.22 72.1848 89.34C72.3048 89.22 72.4248 89.06 72.5448 88.86C72.6648 88.66 72.7848 88.52 72.9048 88.44C73.1848 88.16 73.4848 87.94 73.8048 87.78C74.1248 87.58 74.4248 87.36 74.7048 87.12C74.9048 86.96 75.0848 86.86 75.2448 86.82C75.4448 86.78 75.6248 86.7 75.7848 86.58C75.8648 86.54 75.8848 86.5 75.8448 86.46C75.8048 86.38 75.8248 86.32 75.9048 86.28C76.3448 86.04 76.5848 85.9 76.6248 85.86C76.6648 85.82 76.8248 85.76 77.1048 85.68C77.5448 85.52 78.0448 85.44 78.6048 85.44C78.9648 85.44 79.1848 85.46 79.2648 85.5C79.4648 85.62 79.6848 85.72 79.9248 85.8C80.1648 85.88 80.2848 86.12 80.2848 86.52C80.2848 86.72 80.3048 86.84 80.3448 86.88C80.3848 86.88 80.4048 87.02 80.4048 87.3C80.4048 87.5 80.3648 87.82 80.2848 88.26C80.2448 88.7 80.2048 89.04 80.1648 89.28L79.9248 90.78C79.8848 90.9 79.8848 91.02 79.9248 91.14C79.9648 91.26 79.9648 91.38 79.9248 91.5C79.8848 91.54 79.8248 91.6 79.7448 91.68C79.6648 91.76 79.6048 91.84 79.5648 91.92C79.2848 91.96 79.0848 92.1 78.9648 92.34C78.8848 92.54 78.9848 92.62 79.2648 92.58C79.2248 92.62 79.1448 92.68 79.0248 92.76C78.9448 92.84 78.8848 92.92 78.8448 93C78.8048 93.04 78.8248 93.08 78.9048 93.12C78.9848 93.12 78.9448 93.26 78.7848 93.54C78.6648 93.74 78.5448 94 78.4248 94.32C78.3048 94.64 78.1848 94.9 78.0648 95.1C77.9448 95.26 77.8248 95.36 77.7048 95.4C77.6248 95.44 77.5248 95.54 77.4048 95.7C77.3648 95.78 77.3448 95.86 77.3448 95.94C77.3448 96.02 77.3048 96.1 77.2248 96.18C77.1848 96.26 77.1048 96.32 76.9848 96.36C76.9048 96.4 76.8248 96.46 76.7448 96.54C75.4648 98.06 73.9048 99.44 72.0648 100.68C70.2648 101.92 68.3448 102.7 66.3048 103.02ZM66.4848 101.88C66.8448 101.88 67.3648 101.8 68.0448 101.64C68.7248 101.44 69.3448 101.18 69.9048 100.86C70.1048 100.78 70.2848 100.68 70.4448 100.56C70.6448 100.4 70.8248 100.24 70.9848 100.08C71.1448 99.92 71.2448 99.76 71.2848 99.6C71.4448 99.36 71.6848 99.1 72.0048 98.82L72.3048 98.64C72.4648 98.48 72.6248 98.2 72.7848 97.8H72.9048C73.0648 97.76 73.1648 97.68 73.2048 97.56L73.5048 97.44C73.5048 97.32 73.5448 97.22 73.6248 97.14C73.7048 96.98 73.8448 96.8 74.0448 96.6C74.2448 96.36 74.3448 96.16 74.3448 96C74.3448 95.96 74.3048 95.9 74.2248 95.82C74.2648 95.74 74.3448 95.6 74.4648 95.4C74.6248 95.16 74.7248 95 74.7648 94.92L75.1248 94.86L75.3048 94.5V94.38C75.8248 94.38 76.0448 94.18 75.9648 93.78L76.3848 92.64C76.4648 92.32 76.5848 92.1 76.7448 91.98C76.7448 91.82 76.7648 91.72 76.8048 91.68C76.8448 91.64 76.8848 91.56 76.9248 91.44C77.0448 91.12 77.1648 90.7 77.2848 90.18C77.4448 89.66 77.5248 89.4 77.5248 89.4L77.3448 89.04C77.3448 88.96 77.2848 88.84 77.1648 88.68C77.0848 88.52 77.0648 88.38 77.1048 88.26C77.1848 87.98 77.3248 87.8 77.5248 87.72C77.7648 87.64 77.8048 87.58 77.6448 87.54H77.5848C77.4648 87.54 77.3248 87.56 77.1648 87.6C77.0448 87.64 76.8848 87.7 76.6848 87.78C76.4448 87.86 76.2248 87.88 76.0248 87.84C75.8248 87.8 75.6648 87.82 75.5448 87.9C75.1448 88.02 74.7248 88.22 74.2848 88.5C73.8448 88.74 73.3648 89.08 72.8448 89.52C72.8048 89.56 72.7448 89.64 72.6648 89.76C72.5848 89.88 72.5048 89.98 72.4248 90.06C72.3848 90.1 72.3048 90.12 72.1848 90.12C72.1048 90.12 72.0248 90.16 71.9448 90.24C71.9048 90.28 71.9048 90.34 71.9448 90.42C71.9848 90.5 71.9848 90.58 71.9448 90.66C71.8648 90.7 71.7848 90.74 71.7048 90.78C71.6248 90.82 71.5448 90.88 71.4648 90.96L71.2848 91.26C70.6048 92.02 69.7648 92.86 68.7648 93.78C67.8048 94.7 66.9848 95.6 66.3048 96.48L74.9448 93.18C75.1848 93.06 75.4048 93 75.6048 93C75.6848 92.96 75.7848 93 75.9048 93.12C75.9448 93.2 75.9048 93.28 75.7848 93.36C75.7048 93.44 75.6448 93.46 75.6048 93.42L75.3048 93.36C75.2648 93.4 75.1848 93.46 75.0648 93.54C74.9848 93.62 74.9048 93.66 74.8248 93.66C74.6648 93.74 74.5648 93.78 74.5248 93.78C74.4848 93.82 74.4048 93.84 74.2848 93.84C74.1648 93.84 74.0848 93.86 74.0448 93.9C73.9648 93.94 73.9048 93.98 73.8648 94.02C73.8248 94.02 73.7648 94.06 73.6848 94.14C72.7648 94.54 71.7648 95 70.6848 95.52C69.6048 96 68.6048 96.48 67.6848 96.96C66.5248 97.6 65.7248 98.22 65.2848 98.82C64.8448 99.38 64.6248 99.88 64.6248 100.32C64.6248 100.68 64.7248 101 64.9248 101.28C65.1248 101.52 65.3648 101.68 65.6448 101.76C65.9248 101.84 66.2048 101.88 66.4848 101.88ZM92.0219 102.18C91.7819 102.18 91.6619 102.04 91.6619 101.76C91.6619 101.56 91.7219 101.32 91.8419 101.04C92.1619 100.36 92.5219 99.4 92.9219 98.16C93.3619 96.92 93.9019 95.86 94.5419 94.98C94.9819 94.1 95.3819 93.24 95.7419 92.4C96.1419 91.52 96.5219 90.64 96.8819 89.76C96.8819 89.76 96.8419 89.74 96.7619 89.7C96.6819 89.62 96.6419 89.54 96.6419 89.46C96.4419 89.3 96.2019 89.08 95.9219 88.8C95.6419 88.48 95.6219 88.16 95.8619 87.84C95.9419 87.76 95.9819 87.72 95.9819 87.72C96.0219 87.72 96.0419 87.72 96.0419 87.72C96.0419 87.68 96.0219 87.66 95.9819 87.66C95.9819 87.66 95.9819 87.64 95.9819 87.6L95.9219 87.54C95.8819 87.54 95.8419 87.54 95.8019 87.54C95.8019 87.5 95.7819 87.48 95.7419 87.48C95.5819 87.48 95.4019 87.52 95.2019 87.6C95.0019 87.64 94.8019 87.66 94.6019 87.66C94.3619 87.66 94.0419 87.76 93.6419 87.96C93.2419 88.12 92.8819 88.26 92.5619 88.38C92.4019 88.42 92.3019 88.44 92.2619 88.44C92.2619 88.4 92.1819 88.42 92.0219 88.5C91.9819 88.54 91.9819 88.48 92.0219 88.32C92.1019 88.12 92.1419 87.98 92.1419 87.9C92.1419 87.86 92.1219 87.84 92.0819 87.84C92.0019 87.84 91.8419 87.96 91.6019 88.2C91.3619 88.4 91.2019 88.52 91.1219 88.56C91.0819 88.6 91.0619 88.66 91.0619 88.74C91.1019 88.82 91.1219 88.9 91.1219 88.98C91.1219 89.1 91.0219 89.24 90.8219 89.4C90.6219 89.52 90.4819 89.62 90.4019 89.7C90.2419 89.82 90.0419 89.9 89.8019 89.94C89.6019 89.94 89.4019 90.02 89.2019 90.18C88.9619 90.34 88.8419 90.46 88.8419 90.54C88.8819 90.62 88.7619 90.76 88.4819 90.96C88.1219 91.24 87.6219 91.66 86.9819 92.22C86.3819 92.78 85.9219 93.28 85.6019 93.72C84.8419 94.64 84.1419 95.7 83.5019 96.9C82.9019 98.1 82.6019 99.04 82.6019 99.72C82.6019 100.24 82.8219 100.5 83.2619 100.5C83.3419 100.5 83.4219 100.5 83.5019 100.5C83.5819 100.46 83.6819 100.42 83.8019 100.38L85.3619 99.48L85.7219 99.42V99.36L85.9619 99.54C86.0019 99.5 85.9819 99.44 85.9019 99.36C85.8619 99.24 85.8619 99.18 85.9019 99.18C85.9419 99.18 85.9619 99.2 85.9619 99.24C86.0019 99.24 86.0419 99.24 86.0819 99.24L86.2019 99.06C86.2019 99.06 86.2619 99.08 86.3819 99.12C86.5419 99.12 86.6619 99.08 86.7419 99C86.8619 98.96 86.8819 98.9 86.8019 98.82C86.7619 98.74 86.7019 98.68 86.6219 98.64L87.0419 98.28C87.0819 98.2 87.2419 98.12 87.5219 98.04C88.2019 97.6 88.7619 97.08 89.2019 96.48C89.6819 95.84 90.2219 95.26 90.8219 94.74H90.8819L91.6019 94.02L91.5419 93.84L92.3219 92.94H92.4419C92.4819 92.86 92.5619 92.76 92.6819 92.64C92.8419 92.52 92.9419 92.42 92.9819 92.34C93.0619 92.3 93.2419 92.1 93.5219 91.74C93.8419 91.34 94.1419 91.02 94.4219 90.78C94.7419 90.54 94.9219 90.42 94.9619 90.42C95.0019 90.42 95.0219 90.44 95.0219 90.48C95.0219 90.6 94.9619 90.78 94.8419 91.02C94.7619 91.26 94.6819 91.42 94.6019 91.5C94.3219 91.94 93.9619 92.44 93.5219 93C93.0819 93.52 92.8219 93.84 92.7419 93.96C92.2619 94.48 91.6819 95.18 91.0019 96.06C90.3219 96.9 89.5819 97.74 88.7819 98.58C87.9819 99.42 87.1819 100.14 86.3819 100.74C85.6219 101.3 84.9019 101.58 84.2219 101.58C83.5819 101.58 82.9019 101.38 82.1819 100.98C81.4619 100.58 81.1019 99.82 81.1019 98.7C81.1019 98.34 81.1419 97.94 81.2219 97.5C81.3419 97.02 81.5219 96.52 81.7619 96C81.7619 96 81.8019 95.96 81.8819 95.88C81.9619 95.76 82.0219 95.72 82.0619 95.76C82.1419 95.64 82.1619 95.52 82.1219 95.4C82.1219 95.24 82.1219 95.14 82.1219 95.1L82.2419 94.98C82.3219 94.54 82.6219 94.14 83.1419 93.78C83.6619 93.42 83.9419 93.14 83.9819 92.94C84.0219 92.9 84.0419 92.84 84.0419 92.76L84.2819 91.98V91.74H84.5219L84.7019 91.5L84.7619 91.38C84.6819 91.34 84.7019 91.28 84.8219 91.2C84.9819 91.08 85.0619 91.02 85.0619 91.02C85.1019 90.94 85.1419 90.88 85.1819 90.84C85.2619 90.8 85.3219 90.76 85.3619 90.72H85.7819C85.8619 90.6 85.8219 90.54 85.6619 90.54C85.5019 90.54 85.4219 90.54 85.4219 90.54C85.4219 90.5 85.4219 90.48 85.4219 90.48C85.4619 90.44 85.4819 90.4 85.4819 90.36L86.1419 89.82C86.3419 89.66 86.5419 89.52 86.7419 89.4C86.9419 89.28 87.1219 89.14 87.2819 88.98C87.4019 88.98 87.4219 89.04 87.3419 89.16C87.3819 89.24 87.4219 89.24 87.4619 89.16C87.5419 89.08 87.5819 89.04 87.5819 89.04L87.8819 88.98V88.92C87.8819 88.84 87.9019 88.72 87.9419 88.56C87.9819 88.4 88.0019 88.3 88.0019 88.26C88.8419 87.62 89.7219 87.06 90.6419 86.58C91.5619 86.06 92.4619 85.8 93.3419 85.8C94.3819 85.8 95.3219 86.2 96.1619 87L96.4619 87.18C96.5019 87.18 96.5219 87.16 96.5219 87.12C96.6019 86.56 97.0619 86.14 97.9019 85.86C98.7819 85.58 99.5619 85.44 100.242 85.44C100.962 85.44 101.322 85.54 101.322 85.74C101.322 85.82 101.202 85.96 100.962 86.16C100.842 86.24 100.642 86.42 100.362 86.7C100.082 86.98 99.8019 87.32 99.5219 87.72C99.4819 87.84 99.4219 87.96 99.3419 88.08C99.2619 88.2 99.1819 88.32 99.1019 88.44C99.0619 88.52 99.0019 88.62 98.9219 88.74C98.8819 88.82 98.8219 88.9 98.7419 88.98C98.0619 90.14 97.5219 91.12 97.1219 91.92C96.7219 92.72 96.2419 93.74 95.6819 94.98C95.6019 95.22 95.5619 95.36 95.5619 95.4C95.5619 95.72 95.7419 95.88 96.1019 95.88C96.3419 95.88 96.5819 95.82 96.8219 95.7L97.4219 95.46C98.3819 94.58 99.3819 93.84 100.422 93.24C100.462 93.24 100.482 93.24 100.482 93.24C100.522 93.2 100.562 93.18 100.602 93.18C100.722 93.18 100.802 93.26 100.842 93.42C100.882 93.54 100.842 93.64 100.722 93.72C99.5619 94.36 98.4819 95.18 97.4819 96.18C97.4419 96.26 97.4019 96.34 97.3619 96.42C97.3219 96.5 97.2619 96.58 97.1819 96.66C97.0619 96.74 96.9419 96.88 96.8219 97.08C96.7019 97.28 96.6419 97.4 96.6419 97.44C96.6019 97.56 96.5419 97.6 96.4619 97.56C96.4219 97.52 96.3019 97.58 96.1019 97.74C96.0619 97.78 96.0219 97.86 95.9819 97.98C95.9819 98.1 95.9619 98.2 95.9219 98.28C95.8419 98.4 95.7619 98.5 95.6819 98.58C95.6019 98.62 95.5619 98.66 95.5619 98.7C95.5219 98.86 95.4419 98.96 95.3219 99C95.2419 99 95.1619 99.04 95.0819 99.12C95.0419 99.12 95.0219 99.14 95.0219 99.18C95.0219 99.54 94.9819 99.7 94.9019 99.66C94.8219 99.62 94.7419 99.66 94.6619 99.78C94.5819 99.94 94.4819 100.02 94.3619 100.02C94.1219 100.1 94.0219 100.16 94.0619 100.2C94.1419 100.24 94.2019 100.28 94.2419 100.32C94.3219 100.32 94.2619 100.38 94.0619 100.5C93.9819 100.54 93.9019 100.66 93.8219 100.86C93.7419 101.02 93.6619 101.14 93.5819 101.22C93.4619 101.3 93.3419 101.36 93.2219 101.4C93.1019 101.44 93.0019 101.52 92.9219 101.64C92.5619 102 92.2619 102.18 92.0219 102.18ZM100.149 102.18C99.9091 102.18 99.7891 102.04 99.7891 101.76C99.7891 101.56 99.8491 101.32 99.9691 101.04C100.289 100.36 100.669 99.4 101.109 98.16C101.549 96.92 102.089 95.86 102.729 94.98L105.069 89.76C105.069 89.76 105.029 89.74 104.949 89.7C104.869 89.62 104.829 89.54 104.829 89.46C104.589 89.3 104.329 89.08 104.049 88.8C103.809 88.48 103.789 88.16 103.989 87.84C104.069 87.76 104.129 87.72 104.169 87.72C104.209 87.72 104.229 87.72 104.229 87.72V87.6C104.229 87.44 104.289 87.34 104.409 87.3C104.569 87.26 104.669 87.2 104.709 87.12C104.789 86.56 105.249 86.14 106.089 85.86C106.969 85.58 107.749 85.44 108.429 85.44C109.109 85.44 109.449 85.54 109.449 85.74C109.449 85.86 109.329 86 109.089 86.16C109.009 86.24 108.809 86.42 108.489 86.7C108.209 86.98 107.949 87.32 107.709 87.72L107.289 88.44L106.869 88.98C106.229 90.14 105.709 91.12 105.309 91.92C104.909 92.72 104.429 93.74 103.869 94.98C103.749 95.22 103.689 95.42 103.689 95.58C103.689 95.78 103.769 95.88 103.929 95.88C104.009 95.88 104.089 95.86 104.169 95.82C104.289 95.74 104.409 95.68 104.529 95.64C104.849 95.44 105.109 95.26 105.309 95.1C105.549 94.9 105.809 94.7 106.089 94.5C106.209 94.38 106.309 94.38 106.389 94.5C106.469 94.58 106.469 94.7 106.389 94.86C106.229 95.18 106.109 95.38 106.029 95.46C105.989 95.5 105.929 95.54 105.849 95.58C105.769 95.62 105.589 95.8 105.309 96.12L105.069 96.6C104.989 96.68 104.889 96.84 104.769 97.08C104.689 97.28 104.649 97.4 104.649 97.44C104.649 97.52 104.609 97.56 104.529 97.56C104.449 97.52 104.329 97.58 104.169 97.74C104.129 97.78 104.109 97.86 104.109 97.98C104.149 98.1 104.129 98.2 104.049 98.28C104.009 98.4 103.949 98.5 103.869 98.58C103.789 98.62 103.749 98.66 103.749 98.7C103.709 98.86 103.629 98.96 103.509 99C103.429 99 103.349 99.04 103.269 99.12C103.229 99.12 103.209 99.16 103.209 99.24C103.209 99.56 103.169 99.7 103.089 99.66C103.009 99.62 102.929 99.66 102.849 99.78C102.769 99.94 102.669 100.02 102.549 100.02C102.309 100.1 102.209 100.16 102.249 100.2C102.289 100.24 102.349 100.28 102.429 100.32C102.509 100.32 102.449 100.38 102.249 100.5C102.129 100.54 102.029 100.66 101.949 100.86C101.869 101.02 101.789 101.14 101.709 101.22C101.629 101.3 101.529 101.36 101.409 101.4C101.289 101.44 101.189 101.52 101.109 101.64C100.749 102 100.429 102.18 100.149 102.18ZM118.029 101.7C117.869 101.7 117.729 101.7 117.609 101.7C117.489 101.66 117.369 101.62 117.249 101.58C116.849 101.5 116.489 101.38 116.169 101.22C115.889 101.06 115.649 100.76 115.449 100.32C115.409 100.12 115.309 99.86 115.149 99.54C115.029 99.22 114.949 98.92 114.909 98.64C114.869 98.44 114.849 98.2 114.849 97.92C114.809 97.72 114.789 97.46 114.789 97.14C114.709 96.74 114.669 96.38 114.669 96.06C114.709 95.74 114.729 95.36 114.729 94.92C114.729 94.48 114.749 94.16 114.789 93.96C114.869 93.6 114.909 93.42 114.909 93.42C114.909 93.38 114.909 93.18 114.909 92.82C114.949 92.34 114.969 91.84 114.969 91.32C114.969 90.8 114.989 90.38 115.029 90.06C115.149 88.86 114.909 88.26 114.309 88.26C114.069 88.26 113.749 88.36 113.349 88.56C113.309 88.68 113.229 88.76 113.109 88.8C113.029 88.8 112.909 88.84 112.749 88.92L112.449 89.1C112.449 89.14 112.409 89.16 112.329 89.16C112.249 89.12 112.209 89.14 112.209 89.22C112.249 89.38 112.229 89.48 112.149 89.52C112.109 89.56 112.049 89.54 111.969 89.46L111.309 89.94C111.309 89.98 111.249 90.06 111.129 90.18L111.069 90.24C110.909 90.4 110.769 90.48 110.649 90.48L110.469 90.66C110.469 90.7 110.429 90.78 110.349 90.9C110.309 90.98 110.209 91 110.049 90.96L109.749 91.26C109.589 91.5 109.449 91.64 109.329 91.68C109.249 91.72 109.149 91.76 109.029 91.8L108.549 92.4L108.309 92.46C108.309 92.62 108.129 92.86 107.769 93.18C107.449 93.5 107.229 93.72 107.109 93.84C106.989 93.96 106.869 94.02 106.749 94.02C106.669 94.02 106.629 93.98 106.629 93.9C106.629 93.86 106.729 93.7 106.929 93.42C107.089 93.26 107.329 92.96 107.649 92.52C108.009 92.08 108.209 91.88 108.249 91.92C108.449 91.72 108.589 91.52 108.669 91.32C108.749 91.08 108.889 90.88 109.089 90.72C109.089 90.76 109.089 90.8 109.089 90.84C109.129 90.84 109.149 90.84 109.149 90.84C109.229 90.84 109.329 90.74 109.449 90.54C109.569 90.3 109.649 90.2 109.689 90.24L110.709 89.34C110.709 89.3 110.809 89.22 111.009 89.1C111.169 89.02 111.269 88.98 111.309 88.98C111.349 88.98 111.449 88.86 111.609 88.62L112.029 88.32C112.069 88.24 112.109 88.26 112.149 88.38C112.229 88.46 112.289 88.48 112.329 88.44L112.509 88.02C112.589 87.9 112.709 87.8 112.869 87.72C113.069 87.6 113.269 87.48 113.469 87.36C113.949 86.88 114.309 86.64 114.549 86.64H114.789C115.309 86.44 115.789 86.34 116.229 86.34C116.869 86.34 117.369 86.58 117.729 87.06C117.809 87.18 117.889 87.4 117.969 87.72C118.049 87.76 118.069 87.82 118.029 87.9C118.029 87.94 118.049 88 118.089 88.08C118.129 88.16 118.209 88.26 118.329 88.38C118.449 88.46 118.509 88.56 118.509 88.68V88.8C118.509 88.96 118.409 89.1 118.209 89.22C118.409 89.38 118.489 89.48 118.449 89.52C118.449 89.52 118.429 89.58 118.389 89.7L118.269 90.54C118.229 90.82 118.169 91.04 118.089 91.2C118.009 91.32 117.929 91.54 117.849 91.86C118.009 92.1 118.009 92.26 117.849 92.34H117.729L117.669 92.58C117.669 92.66 117.709 92.74 117.789 92.82L117.609 93.18C117.649 93.14 117.669 93.14 117.669 93.18C117.709 93.18 117.729 93.18 117.729 93.18C117.689 93.26 117.629 93.42 117.549 93.66C117.469 93.86 117.409 94.02 117.369 94.14C117.329 94.34 117.249 94.44 117.129 94.44C117.009 94.44 116.969 94.54 117.009 94.74C117.049 94.78 117.069 94.92 117.069 95.16C117.109 95.36 117.089 95.46 117.009 95.46L116.889 96.18V96.36C116.889 96.56 116.849 96.76 116.769 96.96C116.729 97.16 116.689 97.36 116.649 97.56C116.609 97.76 116.569 97.98 116.529 98.22C116.529 98.42 116.529 98.62 116.529 98.82C116.529 98.98 116.529 99.16 116.529 99.36C116.569 99.52 116.609 99.68 116.649 99.84C116.649 99.88 116.709 100 116.829 100.2C116.949 100.4 117.009 100.52 117.009 100.56L117.189 100.74C117.269 100.78 117.389 100.78 117.549 100.74C117.749 100.7 117.889 100.72 117.969 100.8C118.329 100.84 118.789 100.66 119.349 100.26C119.949 99.82 120.489 99.34 120.969 98.82C121.089 98.7 121.209 98.64 121.329 98.64C121.409 98.64 121.469 98.7 121.509 98.82C121.549 98.94 121.509 99.1 121.389 99.3C120.749 100.22 120.149 100.86 119.589 101.22C119.029 101.54 118.509 101.7 118.029 101.7ZM149.472 105.66C149.232 105.66 148.992 105.64 148.752 105.6C148.512 105.6 148.252 105.58 147.972 105.54C147.932 105.54 147.832 105.48 147.672 105.36C147.512 105.28 147.392 105.24 147.312 105.24C147.072 105.24 146.812 105.22 146.532 105.18C146.292 105.18 146.032 105.16 145.752 105.12C145.712 105.08 145.672 105.02 145.632 104.94C145.632 104.9 145.592 104.88 145.512 104.88C145.472 104.88 145.452 104.88 145.452 104.88C145.492 104.92 145.492 104.94 145.452 104.94C145.412 104.94 145.312 104.9 145.152 104.82C145.032 104.74 144.932 104.68 144.852 104.64V104.52C144.692 104.48 144.592 104.42 144.552 104.34C144.512 104.3 144.472 104.28 144.432 104.28H144.312C144.232 104.28 144.192 104.26 144.192 104.22C144.032 104.14 143.832 104.02 143.592 103.86C143.352 103.74 143.192 103.62 143.112 103.5C142.952 103.46 142.852 103.4 142.812 103.32C142.772 103.28 142.712 103.22 142.632 103.14C142.592 103.06 142.552 103.02 142.512 103.02C142.512 103.06 142.492 103.06 142.452 103.02C142.292 102.78 142.092 102.58 141.852 102.42C141.852 102.38 141.832 102.34 141.792 102.3C141.792 102.3 141.792 102.28 141.792 102.24C141.712 102.24 141.652 102.22 141.612 102.18C141.572 102.1 141.552 102.04 141.552 102C141.552 101.92 141.512 101.88 141.432 101.88C141.392 101.68 141.332 101.54 141.252 101.46C141.172 101.38 141.092 101.26 141.012 101.1C140.972 101.02 140.952 100.94 140.952 100.86C140.952 100.74 140.912 100.68 140.832 100.68V100.62C140.872 100.54 140.812 100.32 140.652 99.96C140.532 99.56 140.472 99.22 140.472 98.94L140.352 98.88C140.232 98.68 140.152 98.44 140.112 98.16C140.112 97.88 140.132 97.6 140.172 97.32C140.252 97 140.252 96.86 140.172 96.9C140.092 96.94 140.092 96.74 140.172 96.3L140.592 95.46C140.592 95.38 140.572 95.3 140.532 95.22C140.492 95.14 140.472 95.08 140.472 95.04C140.472 95 140.492 94.96 140.532 94.92C140.572 94.88 140.592 94.84 140.592 94.8C140.632 94.72 140.652 94.6 140.652 94.44C140.652 94.28 140.672 94.18 140.712 94.14C140.752 94.06 140.812 94 140.892 93.96C140.972 93.88 141.032 93.82 141.072 93.78L141.372 93.06C141.452 92.98 141.512 92.92 141.552 92.88C141.632 92.8 141.692 92.72 141.732 92.64C141.812 92.52 141.872 92.42 141.912 92.34C141.952 92.22 142.012 92.1 142.092 91.98C142.132 91.9 142.192 91.82 142.272 91.74C142.392 91.66 142.472 91.6 142.512 91.56C142.712 91.44 142.872 91.38 142.992 91.38C143.152 91.38 143.252 91.54 143.292 91.86L143.232 92.16C143.072 92.36 142.912 92.54 142.752 92.7C142.592 92.82 142.412 92.96 142.212 93.12C142.212 93.16 142.192 93.22 142.152 93.3C142.152 93.34 142.152 93.4 142.152 93.48C142.072 93.48 142.032 93.52 142.032 93.6C142.032 93.64 142.012 93.7 141.972 93.78C141.972 93.82 141.912 93.9 141.792 94.02C141.752 94.1 141.712 94.2 141.672 94.32C141.672 94.4 141.652 94.48 141.612 94.56L141.432 94.68L141.372 96.12C141.412 96.16 141.452 96.16 141.492 96.12C141.532 96.2 141.552 96.32 141.552 96.48V96.54L141.492 96.6V97.08C141.452 97.12 141.432 97.16 141.432 97.2C141.432 97.24 141.452 97.3 141.492 97.38C141.532 97.42 141.552 97.48 141.552 97.56C141.512 97.6 141.492 97.66 141.492 97.74C141.492 97.82 141.532 97.9 141.612 97.98V98.16C141.692 98.28 141.792 98.4 141.912 98.52C142.032 98.6 142.132 98.68 142.212 98.76L142.692 98.94C143.412 99.46 143.952 99.82 144.312 100.02C144.672 100.22 145.272 100.44 146.112 100.68C146.432 100.76 146.752 100.86 147.072 100.98C147.392 101.06 147.712 101.1 148.032 101.1C148.072 101.1 148.092 101.12 148.092 101.16C148.092 101.16 148.112 101.16 148.152 101.16C148.312 101.16 148.452 101.18 148.572 101.22C148.732 101.26 148.892 101.28 149.052 101.28C149.092 101.28 149.132 101.28 149.172 101.28C149.212 101.24 149.252 101.22 149.292 101.22C149.372 101.22 149.432 101.24 149.472 101.28C149.512 101.28 149.552 101.28 149.592 101.28C149.912 101.28 150.232 101.28 150.552 101.28C150.872 101.28 151.172 101.26 151.452 101.22C151.772 101.22 152.092 101.18 152.412 101.1C152.732 101.02 153.032 100.98 153.312 100.98C153.872 100.94 154.412 100.84 154.932 100.68C155.492 100.48 156.032 100.3 156.552 100.14C156.592 100.1 156.932 99.96 157.572 99.72C158.252 99.44 158.952 99.14 159.672 98.82C159.832 98.34 159.912 97.76 159.912 97.08C159.912 95.96 159.672 94.96 159.192 94.08C159.192 94.08 159.092 94.02 158.892 93.9C158.692 93.74 158.572 93.66 158.532 93.66V93.54C158.532 93.34 158.432 93.24 158.232 93.24C158.032 93.2 157.852 93.08 157.692 92.88C157.612 92.76 157.512 92.66 157.392 92.58V92.52C157.272 92.44 157.252 92.38 157.332 92.34C157.452 92.26 157.532 92.2 157.572 92.16L157.452 92.04H157.392C157.312 91.96 157.212 91.9 157.092 91.86C156.972 91.82 156.872 91.74 156.792 91.62L156.492 91.38C156.452 91.3 156.372 91.26 156.252 91.26C156.132 91.26 156.032 91.24 155.952 91.2C155.792 91.08 155.612 90.94 155.412 90.78C155.212 90.62 155.012 90.5 154.812 90.42H154.752C154.592 90.34 154.432 90.24 154.272 90.12C154.152 90 153.992 89.9 153.792 89.82C153.752 89.74 153.692 89.74 153.612 89.82C153.572 89.86 153.532 89.86 153.492 89.82C153.332 89.74 153.192 89.62 153.072 89.46C152.952 89.26 152.792 89.16 152.592 89.16H152.532C152.412 89.08 152.312 88.96 152.232 88.8C152.192 88.6 152.132 88.46 152.052 88.38C151.692 88.18 151.332 88.04 150.972 87.96C150.612 87.88 150.252 87.78 149.892 87.66C149.652 87.54 149.352 87.48 148.992 87.48C148.672 87.44 148.412 87.4 148.212 87.36C147.972 87.28 147.852 87.16 147.852 87C147.852 86.8 148.052 86.6 148.452 86.4C148.612 86.32 148.792 86.28 148.992 86.28C149.192 86.24 149.372 86.22 149.532 86.22C149.972 86.22 150.652 86.1 151.572 85.86C152.532 85.62 153.612 85.3 154.812 84.9C156.012 84.46 157.172 84 158.292 83.52C158.532 83.44 158.712 83.36 158.832 83.28C158.992 83.2 159.112 83.22 159.192 83.34C159.112 83.34 159.072 83.4 159.072 83.52C159.272 83.52 159.392 83.46 159.432 83.34C159.512 83.18 159.592 83.02 159.672 82.86H159.732L160.872 82.26C161.032 82.22 161.172 82.24 161.292 82.32C161.452 82.36 161.592 82.34 161.712 82.26C161.672 82.18 161.612 82.12 161.532 82.08C161.492 82 161.532 81.92 161.652 81.84C161.732 81.76 161.792 81.72 161.832 81.72C162.072 81.56 162.292 81.46 162.492 81.42C162.732 81.34 162.912 81.18 163.032 80.94C163.672 80.5 164.212 80.04 164.652 79.56C165.092 79.04 165.312 78.56 165.312 78.12C165.312 77.56 164.912 77.08 164.112 76.68C163.352 76.24 161.972 75.88 159.972 75.6C159.892 75.6 159.812 75.6 159.732 75.6C159.652 75.56 159.572 75.54 159.492 75.54C158.972 75.54 158.472 75.42 157.992 75.18C158.032 75.34 157.952 75.42 157.752 75.42C157.192 75.38 156.632 75.36 156.072 75.36C155.512 75.32 154.972 75.3 154.452 75.3C153.572 75.3 152.752 75.32 151.992 75.36C151.272 75.4 150.752 75.44 150.432 75.48C150.112 75.52 149.772 75.56 149.412 75.6C149.092 75.6 148.772 75.64 148.452 75.72C148.212 75.64 147.972 75.68 147.732 75.84H147.672C147.392 75.88 147.112 75.92 146.832 75.96C146.552 76 146.252 76.06 145.932 76.14C145.772 76.18 145.592 76.22 145.392 76.26C145.192 76.26 144.992 76.3 144.792 76.38L143.592 76.62C143.432 76.74 143.252 76.84 143.052 76.92C142.892 76.96 142.712 76.96 142.512 76.92H142.452L141.312 77.22H141.252C141.132 77.22 140.992 77.14 140.832 76.98C140.712 76.78 140.632 76.6 140.592 76.44C140.552 76.68 140.492 76.94 140.412 77.22C140.332 77.5 140.192 77.64 139.992 77.64L138.312 78.18C138.152 78.22 137.972 78.24 137.772 78.24C137.572 78.24 137.372 78.24 137.172 78.24C136.972 78.24 136.812 78.26 136.692 78.3C136.572 78.34 136.492 78.44 136.452 78.6C136.452 78.72 136.392 78.82 136.272 78.9C136.112 79.06 135.912 79.18 135.672 79.26C135.432 79.3 135.212 79.36 135.012 79.44H134.952C134.872 79.44 134.752 79.4 134.592 79.32C134.472 79.24 134.372 79.22 134.292 79.26C134.252 79.3 134.212 79.4 134.172 79.56C134.132 79.72 134.072 79.82 133.992 79.86V79.92C133.752 80 133.492 80.1 133.212 80.22C132.932 80.34 132.672 80.46 132.432 80.58C132.192 80.7 131.912 80.84 131.592 81C131.312 81.12 131.072 81.2 130.872 81.24C130.792 81.24 130.752 81.16 130.752 81C130.792 80.84 130.772 80.8 130.692 80.88C130.452 81 130.212 81.22 129.972 81.54C129.732 81.86 129.512 82.08 129.312 82.2C129.112 82.36 128.892 82.44 128.652 82.44C128.452 82.44 128.252 82.52 128.052 82.68C127.932 82.8 127.812 83 127.692 83.28C127.612 83.52 127.512 83.7 127.392 83.82C127.072 84.14 126.752 84.52 126.432 84.96C126.392 85.04 126.332 85.12 126.252 85.2C126.172 85.28 126.132 85.38 126.132 85.5H126.072C125.832 85.98 125.712 86.44 125.712 86.88C125.712 87.76 126.032 88.4 126.672 88.8C127.352 89.2 128.112 89.5 128.952 89.7C129.112 89.74 129.252 89.8 129.372 89.88C129.532 89.96 129.692 89.98 129.852 89.94C130.012 89.86 130.152 89.82 130.272 89.82C130.472 89.82 130.632 89.9 130.752 90.06L131.652 90.24C132.132 90.36 132.372 90.48 132.372 90.6C132.372 90.68 132.252 90.76 132.012 90.84C131.812 90.88 131.612 90.9 131.412 90.9C130.692 90.9 129.812 90.76 128.772 90.48C127.732 90.16 126.792 89.7 125.952 89.1C125.112 88.46 124.632 87.68 124.512 86.76C124.512 86.72 124.452 86.62 124.332 86.46C124.252 86.3 124.192 86.16 124.152 86.04C124.032 85.68 123.972 85.32 123.972 84.96C123.972 84.28 124.112 83.64 124.392 83.04C124.712 82.44 125.132 81.88 125.652 81.36C125.852 81.16 126.032 81.02 126.192 80.94C126.392 80.86 126.612 80.74 126.852 80.58C127.092 80.42 127.212 80.28 127.212 80.16C127.212 80.04 127.332 79.9 127.572 79.74C127.892 79.54 128.332 79.3 128.892 79.02C129.492 78.74 129.952 78.52 130.272 78.36C130.512 78.36 130.732 78.26 130.932 78.06C131.732 77.7 132.572 77.38 133.452 77.1C134.332 76.78 135.212 76.48 136.092 76.2C136.332 76.08 136.572 76.02 136.812 76.02C137.052 76.02 137.232 76.08 137.352 76.2C137.352 76.12 137.332 76.06 137.292 76.02C137.292 75.94 137.332 75.88 137.412 75.84C138.412 75.52 139.412 75.26 140.412 75.06C141.412 74.82 142.372 74.62 143.292 74.46H143.352C143.472 74.46 143.652 74.42 143.892 74.34H143.952C144.032 74.34 144.092 74.34 144.132 74.34C144.212 74.3 144.292 74.28 144.372 74.28C144.612 74.4 144.852 74.36 145.092 74.16C146.172 73.96 147.172 73.82 148.092 73.74C149.012 73.62 149.792 73.56 150.432 73.56H150.612C150.692 73.56 150.772 73.56 150.852 73.56C150.972 73.52 151.072 73.5 151.152 73.5H151.752C151.872 73.46 151.992 73.46 152.112 73.5C152.272 73.5 152.392 73.5 152.472 73.5H152.532C153.012 73.5 153.512 73.52 154.032 73.56C154.592 73.56 155.152 73.56 155.712 73.56H155.772C155.932 73.6 156.052 73.66 156.132 73.74C156.252 73.82 156.392 73.78 156.552 73.62C157.632 73.66 158.712 73.78 159.792 73.98C160.392 74.06 161.112 74.22 161.952 74.46C162.832 74.66 163.672 74.96 164.472 75.36C165.272 75.72 165.932 76.18 166.452 76.74C167.012 77.3 167.292 77.98 167.292 78.78C167.292 79.1 167.232 79.44 167.112 79.8C166.992 80.16 166.772 80.5 166.452 80.82C166.132 81.1 165.812 81.4 165.492 81.72L164.772 82.38L164.352 82.5L163.872 82.74C162.992 83.14 162.032 83.6 160.992 84.12C159.952 84.6 158.852 84.98 157.692 85.26L157.152 85.38H157.092V85.44H157.032C156.952 85.48 156.852 85.5 156.732 85.5C156.612 85.46 156.492 85.48 156.372 85.56C154.412 86.08 152.552 86.44 150.792 86.64C150.392 86.68 150.192 86.76 150.192 86.88C150.192 86.96 150.332 87.06 150.612 87.18C150.932 87.26 151.172 87.34 151.332 87.42C152.092 87.66 152.892 87.92 153.732 88.2C154.572 88.44 155.432 88.74 156.312 89.1C156.552 89.14 156.792 89.22 157.032 89.34C157.312 89.46 157.512 89.64 157.632 89.88C157.672 89.8 157.732 89.78 157.812 89.82C157.892 89.86 157.952 89.88 157.992 89.88C158.512 90.12 159.012 90.38 159.492 90.66C159.972 90.94 160.412 91.24 160.812 91.56C160.892 91.76 160.932 91.86 160.932 91.86C161.212 91.86 161.412 91.94 161.532 92.1C161.652 92.26 161.792 92.44 161.952 92.64C162.392 93.12 162.732 93.64 162.972 94.2C163.212 94.72 163.332 95.28 163.332 95.88C163.332 96.04 163.312 96.2 163.272 96.36C163.272 96.52 163.252 96.7 163.212 96.9C164.132 96.38 164.812 95.7 165.252 94.86C165.332 94.74 165.432 94.68 165.552 94.68C165.792 94.68 165.872 94.82 165.792 95.1C165.592 95.62 165.212 96.2 164.652 96.84C164.132 97.44 163.532 97.9 162.852 98.22C162.852 98.26 162.832 98.3 162.792 98.34C162.592 98.82 162.392 99.18 162.192 99.42C162.152 99.58 162.072 99.7 161.952 99.78C161.872 99.86 161.812 99.96 161.772 100.08L161.712 100.14L161.472 100.26C161.432 100.3 161.392 100.36 161.352 100.44C161.352 100.52 161.312 100.6 161.232 100.68C161.312 100.76 161.292 100.8 161.172 100.8C160.172 102 158.892 103 157.332 103.8H157.272C156.992 103.96 156.892 104 156.972 103.92C157.052 103.88 157.052 103.82 156.972 103.74H156.912C156.592 103.9 156.392 104.02 156.312 104.1C156.192 104.1 156.052 104.14 155.892 104.22C155.772 104.3 155.712 104.34 155.712 104.34H155.412C155.372 104.34 155.272 104.38 155.112 104.46C154.992 104.58 154.892 104.66 154.812 104.7C154.612 104.7 154.472 104.76 154.392 104.88C154.312 104.88 154.212 104.88 154.092 104.88C153.972 104.88 153.852 104.9 153.732 104.94C153.692 104.98 153.492 105 153.132 105C152.812 105.04 152.612 105.08 152.532 105.12C152.492 105.16 152.352 105.22 152.112 105.3C151.872 105.38 151.712 105.42 151.632 105.42C151.592 105.42 151.552 105.4 151.512 105.36C151.512 105.36 151.492 105.36 151.452 105.36C151.412 105.36 151.372 105.38 151.332 105.42C151.292 105.5 151.232 105.54 151.152 105.54C151.072 105.54 150.992 105.52 150.912 105.48C150.832 105.44 150.752 105.42 150.672 105.42C150.632 105.42 150.552 105.44 150.432 105.48C150.352 105.56 150.272 105.6 150.192 105.6C150.112 105.6 150.032 105.58 149.952 105.54C149.912 105.54 149.832 105.56 149.712 105.6C149.632 105.64 149.552 105.66 149.472 105.66ZM134.532 106.32C134.252 106.32 134.112 106.02 134.112 105.42C134.112 105.02 134.192 104.52 134.352 103.92C134.552 103.36 134.792 102.7 135.072 101.94C135.392 101.66 135.552 101.3 135.552 100.86C135.632 100.9 135.672 100.9 135.672 100.86C135.712 100.78 135.732 100.74 135.732 100.74C135.812 100.62 135.852 100.5 135.852 100.38C135.852 100.22 135.872 100.08 135.912 99.96C136.632 98.16 137.552 96.2 138.672 94.08C138.752 93.92 138.832 93.88 138.912 93.96C139.032 94 139.112 93.98 139.152 93.9C139.192 93.86 139.212 93.76 139.212 93.6C139.212 93.48 139.192 93.36 139.152 93.24C139.152 93.12 139.212 92.98 139.332 92.82L140.172 91.32C141.332 89.24 142.492 87.24 143.652 85.32C144.852 83.4 145.972 81.92 147.012 80.88L147.192 80.76L147.372 80.46C147.372 80.46 147.412 80.44 147.492 80.4C147.572 80.36 147.632 80.38 147.672 80.46C147.672 80.5 147.632 80.58 147.552 80.7C147.512 80.82 147.492 80.9 147.492 80.94C147.612 81.14 147.752 81.16 147.912 81C147.952 80.92 147.952 80.74 147.912 80.46C147.872 80.18 147.872 80.04 147.912 80.04C147.992 80 148.032 80 148.032 80.04C148.072 80.08 148.112 80.1 148.152 80.1C148.232 80.1 148.272 80.04 148.272 79.92C148.272 79.8 148.292 79.72 148.332 79.68C148.772 79.52 149.172 79.44 149.532 79.44C149.732 79.44 150.012 79.54 150.372 79.74C150.772 79.94 150.972 80.22 150.972 80.58C150.972 80.78 150.872 81.02 150.672 81.3C150.632 81.34 150.592 81.42 150.552 81.54C150.512 81.62 150.452 81.7 150.372 81.78C150.332 81.82 150.292 81.84 150.252 81.84C150.252 81.8 150.212 81.8 150.132 81.84C150.092 81.88 150.032 81.9 149.952 81.9C149.912 81.86 149.852 81.84 149.772 81.84C149.692 81.84 149.672 81.9 149.712 82.02C149.792 82.14 149.812 82.22 149.772 82.26C149.732 82.3 149.692 82.3 149.652 82.26C149.612 82.22 149.552 82.24 149.472 82.32C149.432 82.36 149.452 82.4 149.532 82.44C149.652 82.44 149.672 82.48 149.592 82.56C149.352 82.8 149.052 83.06 148.692 83.34C148.372 83.58 148.052 83.82 147.732 84.06C147.692 84.1 147.652 84.1 147.612 84.06C147.572 83.98 147.532 83.96 147.492 84L147.072 84.6C146.672 85 146.272 85.42 145.872 85.86C145.472 86.3 145.052 86.8 144.612 87.36C144.492 87.6 144.352 87.82 144.192 88.02C144.032 88.22 143.812 88.3 143.532 88.26C143.532 88.3 143.572 88.36 143.652 88.44C143.732 88.48 143.732 88.56 143.652 88.68C142.972 89.64 142.292 90.64 141.612 91.68C140.932 92.72 140.292 93.8 139.692 94.92C139.412 95.4 139.072 96.02 138.672 96.78L138.132 97.86C138.092 97.98 138.032 98.04 137.952 98.04C137.912 98 137.852 97.98 137.772 97.98C137.852 98.14 137.892 98.28 137.892 98.4C137.892 98.72 137.712 99.06 137.352 99.42C136.832 100.62 136.352 101.76 135.912 102.84C135.472 103.92 135.132 104.92 134.892 105.84C134.812 106.16 134.692 106.32 134.532 106.32ZM149.712 104.64H149.832C149.912 104.68 150.012 104.64 150.132 104.52H150.372C150.532 104.44 150.632 104.4 150.672 104.4C150.752 104.4 150.812 104.44 150.852 104.52C150.892 104.64 150.992 104.64 151.152 104.52L151.392 104.46C151.472 104.38 151.552 104.34 151.632 104.34C151.712 104.34 151.792 104.32 151.872 104.28C151.952 104.24 151.992 104.18 151.992 104.1C152.032 104.06 152.092 104.06 152.172 104.1C152.252 104.1 152.292 104.1 152.292 104.1C152.332 104.14 152.372 104.16 152.412 104.16H152.472C152.592 104.16 152.752 104.1 152.952 103.98C153.152 103.86 153.252 103.8 153.252 103.8C153.332 103.8 153.412 103.74 153.492 103.62C153.572 103.54 153.632 103.5 153.672 103.5L154.152 103.38C154.392 103.26 154.572 103.2 154.692 103.2C154.732 103.12 154.852 103.04 155.052 102.96C155.252 102.88 155.352 102.82 155.352 102.78C155.432 102.7 155.552 102.64 155.712 102.6C155.872 102.56 155.972 102.52 156.012 102.48C156.172 102.48 156.552 102.24 157.152 101.76C157.792 101.28 158.332 100.66 158.772 99.9C158.812 99.82 158.692 99.84 158.412 99.96C158.132 100.08 157.832 100.22 157.512 100.38C157.232 100.5 157.072 100.56 157.032 100.56C156.992 100.56 156.892 100.64 156.732 100.8C156.572 100.92 156.472 100.98 156.432 100.98C156.352 101.06 156.272 101.1 156.192 101.1C156.192 101.1 156.112 101.06 155.952 100.98V101.1C155.872 101.1 155.812 101.12 155.772 101.16C155.732 101.16 155.672 101.16 155.592 101.16C155.512 101.16 155.392 101.2 155.232 101.28C155.072 101.36 154.972 101.4 154.932 101.4C154.892 101.4 154.832 101.42 154.752 101.46C154.712 101.46 154.652 101.44 154.572 101.4C154.412 101.56 154.112 101.68 153.672 101.76C153.232 101.84 152.912 101.88 152.712 101.88C152.672 101.88 152.652 101.88 152.652 101.88C152.692 101.84 152.692 101.82 152.652 101.82C152.612 101.82 152.572 101.84 152.532 101.88C152.492 101.88 152.432 101.88 152.352 101.88L152.232 102H151.752C151.632 102 151.492 102.02 151.332 102.06C151.212 102.1 151.112 102.1 151.032 102.06H150.912C150.872 102.06 150.812 102.06 150.732 102.06C150.692 102.1 150.632 102.12 150.552 102.12C150.512 102.12 150.472 102.1 150.432 102.06C150.432 102.02 150.392 101.98 150.312 101.94C150.272 101.94 150.232 101.96 150.192 102C150.152 102.08 150.092 102.12 150.012 102.12C149.972 102.12 149.932 102.1 149.892 102.06C149.892 102.06 149.872 102.06 149.832 102.06H149.592C149.592 102.1 149.552 102.12 149.472 102.12C149.432 102.12 149.412 102.1 149.412 102.06C149.412 102.06 149.392 102.06 149.352 102.06C149.272 102.06 149.172 102.08 149.052 102.12C148.972 102.16 148.892 102.18 148.812 102.18H148.692C148.692 102.1 148.652 102.04 148.572 102V102.06H148.032C147.792 102.02 147.552 101.94 147.312 101.82C147.072 101.7 146.852 101.62 146.652 101.58C146.612 101.58 146.572 101.6 146.532 101.64C146.532 101.68 146.512 101.7 146.472 101.7C146.432 101.7 146.392 101.68 146.352 101.64C146.352 101.6 146.332 101.58 146.292 101.58C146.252 101.58 146.212 101.6 146.172 101.64C146.172 101.64 146.132 101.6 146.052 101.52C145.972 101.52 145.812 101.48 145.572 101.4C145.572 101.28 145.512 101.22 145.392 101.22C145.392 101.14 145.152 101.04 144.672 100.92C144.192 100.8 143.912 100.72 143.832 100.68C143.792 100.64 143.712 100.58 143.592 100.5C143.512 100.42 143.452 100.42 143.412 100.5C143.292 100.46 143.132 100.36 142.932 100.2C142.732 100 142.572 99.9 142.452 99.9L142.212 99.54H142.152L141.972 99.84C141.972 99.88 141.992 99.98 142.032 100.14C142.112 100.3 142.132 100.42 142.092 100.5C142.172 100.54 142.212 100.62 142.212 100.74C142.212 100.86 142.252 100.92 142.332 100.92C142.332 101.16 142.412 101.4 142.572 101.64C142.572 101.68 142.672 101.76 142.872 101.88C143.112 102 143.212 102.08 143.172 102.12C143.332 102.28 143.412 102.4 143.412 102.48C143.572 102.64 143.652 102.76 143.652 102.84C143.692 102.88 143.712 102.9 143.712 102.9C143.752 102.9 143.772 102.9 143.772 102.9C143.812 102.98 143.912 103.12 144.072 103.32C144.272 103.52 144.412 103.62 144.492 103.62H144.612C144.652 103.66 144.732 103.74 144.852 103.86C145.012 103.98 145.112 104.04 145.152 104.04H145.212C145.532 104.04 145.852 104.08 146.172 104.16C146.532 104.28 146.872 104.36 147.192 104.4C147.192 104.4 147.232 104.42 147.312 104.46C147.432 104.5 147.552 104.54 147.672 104.58C147.992 104.62 148.372 104.62 148.812 104.58C149.252 104.58 149.552 104.6 149.712 104.64ZM176.948 83.28C176.828 83.28 176.708 83.24 176.588 83.16C176.508 83.08 176.388 82.98 176.228 82.86C176.148 82.82 176.048 82.78 175.928 82.74C175.848 82.66 175.808 82.54 175.808 82.38C175.768 82.34 175.688 82.32 175.568 82.32C175.368 82.32 175.268 82.18 175.268 81.9C175.268 81.58 175.428 81.36 175.748 81.24L176.048 81V81.06L176.288 80.76H176.408C176.648 80.76 176.808 80.64 176.888 80.4C177.008 80.16 177.248 80 177.608 79.92C177.848 79.84 178.048 79.86 178.208 79.98C178.368 80.1 178.568 80.16 178.808 80.16C179.048 80.16 179.308 80.08 179.588 79.92L180.488 79.74C180.608 79.74 180.668 79.78 180.668 79.86C180.668 79.94 180.548 80.04 180.308 80.16C180.108 80.28 179.968 80.38 179.888 80.46L179.828 80.52L179.768 80.64L179.528 80.94C179.288 81.22 179.008 81.56 178.688 81.96C178.408 82.32 178.108 82.62 177.788 82.86C177.428 83.14 177.148 83.28 176.948 83.28ZM167.828 102.18C167.588 102.18 167.468 102.04 167.468 101.76C167.468 101.56 167.528 101.32 167.648 101.04C167.968 100.36 168.328 99.4 168.728 98.16C169.168 96.92 169.708 95.86 170.348 94.98C170.788 94.1 171.188 93.24 171.548 92.4C171.948 91.52 172.328 90.64 172.688 89.76C172.688 89.76 172.648 89.74 172.568 89.7C172.528 89.62 172.508 89.54 172.508 89.46C172.268 89.3 172.008 89.08 171.728 88.8C171.488 88.48 171.468 88.16 171.668 87.84C171.748 87.76 171.808 87.72 171.848 87.72C171.888 87.72 171.908 87.72 171.908 87.72C171.908 87.68 171.888 87.66 171.848 87.66C171.848 87.62 171.848 87.6 171.848 87.6C171.848 87.44 171.928 87.34 172.088 87.3C172.248 87.26 172.328 87.2 172.328 87.12C172.408 86.56 172.888 86.14 173.768 85.86C174.648 85.58 175.428 85.44 176.108 85.44C176.788 85.44 177.128 85.54 177.128 85.74C177.128 85.82 177.008 85.96 176.768 86.16C176.648 86.24 176.448 86.42 176.168 86.7C175.888 86.98 175.628 87.32 175.388 87.72L174.908 88.44C174.868 88.52 174.808 88.62 174.728 88.74C174.688 88.82 174.628 88.9 174.548 88.98C173.908 90.14 173.388 91.12 172.988 91.92C172.588 92.72 172.108 93.74 171.548 94.98C171.468 95.22 171.428 95.38 171.428 95.46C171.428 95.74 171.588 95.88 171.908 95.88C172.148 95.88 172.388 95.82 172.628 95.7L173.228 95.46C174.188 94.58 175.188 93.84 176.228 93.24C176.268 93.24 176.288 93.24 176.288 93.24C176.328 93.2 176.368 93.18 176.408 93.18C176.528 93.18 176.608 93.26 176.648 93.42C176.688 93.54 176.648 93.64 176.528 93.72C175.368 94.36 174.288 95.18 173.288 96.18C173.248 96.26 173.208 96.34 173.168 96.42C173.128 96.5 173.068 96.58 172.988 96.66C172.908 96.74 172.788 96.88 172.628 97.08C172.508 97.28 172.448 97.4 172.448 97.44C172.408 97.56 172.348 97.6 172.268 97.56C172.228 97.52 172.108 97.58 171.908 97.74C171.868 97.78 171.828 97.86 171.788 97.98C171.788 98.1 171.768 98.2 171.728 98.28C171.688 98.4 171.608 98.5 171.488 98.58C171.408 98.62 171.368 98.66 171.368 98.7C171.328 98.86 171.248 98.96 171.128 99C171.048 99 170.968 99.04 170.888 99.12C170.848 99.16 170.848 99.22 170.888 99.3C170.928 99.38 170.908 99.46 170.828 99.54C170.788 99.66 170.748 99.72 170.708 99.72C170.668 99.68 170.608 99.7 170.528 99.78C170.368 99.94 170.248 100.02 170.168 100.02C169.928 100.1 169.828 100.16 169.868 100.2C169.948 100.24 170.008 100.28 170.048 100.32C170.128 100.32 170.068 100.38 169.868 100.5C169.788 100.54 169.708 100.66 169.628 100.86C169.548 101.02 169.468 101.14 169.388 101.22C169.268 101.3 169.148 101.36 169.028 101.4C168.948 101.44 168.848 101.52 168.728 101.64C168.368 102 168.068 102.18 167.828 102.18ZM179.887 102.18C179.647 102.18 179.527 102.04 179.527 101.76C179.527 101.56 179.587 101.32 179.707 101.04C180.027 100.36 180.387 99.4 180.787 98.16C181.227 96.92 181.767 95.86 182.407 94.98L185.407 88.8C185.167 88.8 184.927 88.86 184.687 88.98C184.487 89.1 184.387 89.2 184.387 89.28C184.387 89.44 184.167 89.6 183.727 89.76C183.287 89.92 183.047 90.02 183.007 90.06C182.407 90.22 181.847 90.4 181.327 90.6C180.927 91.04 180.527 91.48 180.127 91.92C179.767 92.36 179.427 92.8 179.107 93.24C179.067 93.28 179.027 93.3 178.987 93.3C178.627 93.7 178.327 94 178.087 94.2C177.847 94.4 177.587 94.58 177.307 94.74C177.147 94.86 176.987 94.9 176.827 94.86C176.627 94.78 176.607 94.7 176.767 94.62C176.967 94.54 177.287 94.26 177.727 93.78C178.167 93.3 178.507 92.94 178.747 92.7C178.947 92.58 179.007 92.58 178.927 92.7C178.887 92.82 178.947 92.8 179.107 92.64L180.607 90.72L180.667 90.66C180.467 90.54 180.367 90.22 180.367 89.7C180.367 89.3 180.447 88.98 180.607 88.74C180.607 88.7 180.647 88.68 180.727 88.68L181.987 88.32C182.107 88.32 182.187 88.3 182.227 88.26C182.307 88.18 182.387 88.08 182.467 87.96C182.587 87.8 182.727 87.6 182.887 87.36L183.607 86.4L184.087 85.74C184.087 85.62 184.167 85.48 184.327 85.32C184.527 85.12 184.687 84.98 184.807 84.9C184.967 84.66 185.067 84.48 185.107 84.36C185.187 84.2 185.307 84 185.467 83.76C185.467 83.72 185.527 83.7 185.647 83.7C185.767 83.66 185.827 83.62 185.827 83.58C185.867 83.18 185.927 83 186.007 83.04C186.127 83.04 186.187 82.98 186.187 82.86C186.187 82.74 186.267 82.64 186.427 82.56L186.727 82.2C186.727 82.16 186.787 82.08 186.907 81.96V81.9C186.907 81.82 186.907 81.72 186.907 81.6C186.907 81.48 186.947 81.36 187.027 81.24C187.107 81.16 187.167 81.12 187.207 81.12C187.247 81.12 187.267 81.12 187.267 81.12C187.267 81.08 187.247 81.06 187.207 81.06C187.207 81.02 187.207 81 187.207 81C187.207 80.84 187.287 80.74 187.447 80.7C187.607 80.66 187.687 80.6 187.687 80.52C187.767 79.96 188.247 79.54 189.127 79.26C190.007 78.98 190.787 78.84 191.467 78.84C192.147 78.84 192.487 78.94 192.487 79.14C192.487 79.22 192.367 79.36 192.127 79.56C192.007 79.6 191.807 79.78 191.527 80.1C191.247 80.38 190.987 80.72 190.747 81.12L190.267 81.84C190.227 81.92 190.167 82.02 190.087 82.14C190.047 82.22 189.987 82.3 189.907 82.38C189.627 82.86 189.247 83.54 188.767 84.42C188.327 85.26 187.847 86.2 187.327 87.24L188.887 87.06C189.007 87.06 189.047 87.08 189.007 87.12C189.007 87.16 189.067 87.16 189.187 87.12C189.387 87.12 189.527 87.1 189.607 87.06C189.687 86.98 189.827 86.92 190.027 86.88C190.347 86.84 190.707 86.82 191.107 86.82C191.547 86.78 191.887 86.76 192.127 86.76C192.287 86.76 192.487 86.76 192.727 86.76C192.967 86.76 193.147 86.78 193.267 86.82C193.347 86.82 193.367 86.86 193.327 86.94C193.327 86.98 193.347 87 193.387 87C193.467 87 193.527 86.98 193.567 86.94C193.647 86.9 193.727 86.88 193.807 86.88C193.847 86.84 193.907 86.84 193.987 86.88C194.107 86.88 194.187 86.88 194.227 86.88L194.827 87.06C195.067 87.1 195.187 87.24 195.187 87.48C195.227 87.72 195.127 87.8 194.887 87.72C194.727 87.64 194.587 87.6 194.467 87.6H192.967C192.687 87.6 192.427 87.6 192.187 87.6C191.947 87.6 191.707 87.62 191.467 87.66C191.387 87.7 191.347 87.66 191.347 87.54C191.387 87.42 191.367 87.36 191.287 87.36C191.247 87.36 191.187 87.42 191.107 87.54C191.027 87.62 190.967 87.66 190.927 87.66L190.627 87.84C189.987 88 189.307 88.18 188.587 88.38C187.867 88.54 187.167 88.72 186.487 88.92C185.887 90.16 185.307 91.34 184.747 92.46C184.227 93.54 183.827 94.38 183.547 94.98C183.467 95.22 183.427 95.36 183.427 95.4C183.427 95.72 183.607 95.88 183.967 95.88C184.207 95.88 184.447 95.82 184.687 95.7L185.287 95.46C186.247 94.58 187.247 93.84 188.287 93.24C188.327 93.24 188.347 93.24 188.347 93.24C188.387 93.2 188.427 93.18 188.467 93.18C188.587 93.18 188.667 93.26 188.707 93.42C188.747 93.54 188.707 93.64 188.587 93.72C187.427 94.36 186.347 95.18 185.347 96.18C185.307 96.26 185.267 96.34 185.227 96.42C185.187 96.5 185.127 96.58 185.047 96.66C184.967 96.74 184.847 96.88 184.687 97.08C184.567 97.28 184.507 97.4 184.507 97.44C184.467 97.56 184.407 97.6 184.327 97.56C184.287 97.52 184.167 97.58 183.967 97.74C183.927 97.78 183.887 97.86 183.847 97.98C183.847 98.1 183.827 98.2 183.787 98.28C183.707 98.4 183.627 98.5 183.547 98.58C183.467 98.62 183.427 98.66 183.427 98.7C183.387 98.86 183.307 98.96 183.187 99C183.107 99 183.027 99.04 182.947 99.12C182.907 99.12 182.887 99.14 182.887 99.18C182.887 99.54 182.847 99.7 182.767 99.66C182.687 99.62 182.627 99.66 182.587 99.78C182.427 99.94 182.307 100.02 182.227 100.02C181.987 100.1 181.887 100.16 181.927 100.2C182.007 100.24 182.067 100.28 182.107 100.32C182.187 100.32 182.127 100.38 181.927 100.5C181.847 100.54 181.767 100.66 181.687 100.86C181.607 101.02 181.527 101.14 181.447 101.22C181.327 101.3 181.207 101.36 181.087 101.4C180.967 101.44 180.867 101.52 180.787 101.64C180.427 102 180.127 102.18 179.887 102.18ZM183.307 88.08C183.467 88.04 183.607 88 183.727 87.96C183.887 87.92 184.047 87.86 184.207 87.78L186.007 87.48C186.487 86.52 186.907 85.66 187.267 84.9C187.627 84.1 187.887 83.52 188.047 83.16C188.047 83.16 188.007 83.14 187.927 83.1C187.887 83.02 187.867 82.94 187.867 82.86C187.787 82.82 187.687 82.76 187.567 82.68C187.487 82.6 187.407 82.54 187.327 82.5L186.787 83.04L186.127 83.94C186.127 83.98 186.067 84.02 185.947 84.06C185.867 84.06 185.827 84.08 185.827 84.12C185.827 84.24 185.767 84.36 185.647 84.48C185.567 84.6 185.487 84.64 185.407 84.6L185.167 85.2C185.167 85.32 185.107 85.42 184.987 85.5L184.567 86.04C184.567 86.08 184.547 86.12 184.507 86.16C184.507 86.16 184.507 86.2 184.507 86.28C184.467 86.36 184.407 86.46 184.327 86.58C184.247 86.7 184.147 86.82 184.027 86.94C183.987 86.94 183.967 86.96 183.967 87C183.967 87 183.947 87 183.907 87L183.727 87.36C183.567 87.44 183.467 87.48 183.427 87.48L183.367 87.6C183.367 87.84 183.347 88 183.307 88.08ZM194.681 102.12C193.681 102.12 192.801 101.84 192.041 101.28C191.281 100.72 190.901 99.76 190.901 98.4C190.901 97.88 190.961 97.36 191.081 96.84C191.201 96.28 191.341 95.74 191.501 95.22C191.581 94.7 191.701 94.24 191.861 93.84C191.901 93.68 191.921 93.6 191.921 93.6C191.961 93.56 192.061 93.5 192.221 93.42L192.701 92.7V92.46C192.661 92.46 192.641 92.46 192.641 92.46C192.641 92.42 192.641 92.4 192.641 92.4C192.641 92.28 192.741 92.14 192.941 91.98C193.141 91.82 193.241 91.74 193.241 91.74C193.281 91.54 193.341 91.44 193.421 91.44C193.501 91.44 193.601 91.38 193.721 91.26H194.381V91.14C194.381 90.94 194.281 90.86 194.081 90.9C193.921 90.9 193.841 90.88 193.841 90.84C193.841 90.8 193.901 90.72 194.021 90.6C194.181 90.44 194.281 90.34 194.321 90.3C194.441 90.14 194.541 90 194.621 89.88C194.701 89.72 194.821 89.6 194.981 89.52C195.701 88.64 196.141 88.08 196.301 87.84C196.501 87.6 196.701 87.42 196.901 87.3C196.981 87.3 197.041 87.34 197.081 87.42C197.161 87.46 197.161 87.52 197.081 87.6C197.161 87.72 197.221 87.74 197.261 87.66C197.341 87.58 197.381 87.54 197.381 87.54L197.621 87.42C197.541 87.34 197.501 87.24 197.501 87.12C197.501 86.92 197.541 86.76 197.621 86.64C197.701 86.48 197.841 86.32 198.041 86.16C198.281 86 198.401 85.9 198.401 85.86C198.641 85.78 198.821 85.7 198.941 85.62C199.101 85.54 199.261 85.5 199.421 85.5C199.701 85.5 199.981 85.6 200.261 85.8C201.021 86.2 201.661 86.6 202.181 87C202.701 87.4 202.961 87.96 202.961 88.68C202.961 89.44 202.641 90.1 202.001 90.66C201.401 91.18 200.661 91.62 199.781 91.98C198.901 92.34 198.021 92.64 197.141 92.88C196.301 93.08 195.641 93.24 195.161 93.36C194.881 93.4 194.741 93.52 194.741 93.72C194.781 93.88 194.761 94.06 194.681 94.26L194.261 94.92L193.901 95.76L193.601 96.3C193.321 96.54 193.221 96.72 193.301 96.84C193.381 96.96 193.521 96.94 193.721 96.78C193.761 96.82 193.781 96.88 193.781 96.96C193.781 97.12 193.741 97.32 193.661 97.56C193.581 97.76 193.521 97.92 193.481 98.04C193.441 98.2 193.441 98.28 193.481 98.28C193.561 98.24 193.601 98.32 193.601 98.52L193.661 99.36C193.901 100.12 194.441 100.56 195.281 100.68C195.361 100.68 195.441 100.7 195.521 100.74C195.641 100.74 195.741 100.74 195.821 100.74C196.541 100.74 196.921 100.68 196.961 100.56C197.041 100.44 197.141 100.36 197.261 100.32C197.621 100.24 197.921 100.16 198.161 100.08C198.441 100 198.721 99.88 199.001 99.72C199.481 99.52 199.941 99.26 200.381 98.94C200.821 98.62 201.281 98.3 201.761 97.98L202.361 97.56C202.401 97.48 202.401 97.42 202.361 97.38C202.321 97.34 202.321 97.3 202.361 97.26C202.441 97.22 202.501 97.22 202.541 97.26C202.621 97.26 202.681 97.24 202.721 97.2C202.801 97.16 202.881 97.1 202.961 97.02C203.041 96.9 203.121 96.8 203.201 96.72C203.281 96.64 203.321 96.56 203.321 96.48C203.361 96.4 203.421 96.32 203.501 96.24C203.821 95.92 204.141 95.58 204.461 95.22C204.821 94.86 205.121 94.54 205.361 94.26C205.641 93.86 205.861 93.66 206.021 93.66C206.101 93.66 206.141 93.7 206.141 93.78C206.141 93.98 206.001 94.28 205.721 94.68C205.041 95.68 204.261 96.66 203.381 97.62C202.501 98.54 201.541 99.38 200.501 100.14C199.741 100.66 198.841 101.12 197.801 101.52C196.761 101.92 195.721 102.12 194.681 102.12ZM195.581 92.46C196.181 92.42 196.961 92.26 197.921 91.98C198.881 91.66 199.681 91.24 200.321 90.72C201.001 90.16 201.341 89.54 201.341 88.86C201.341 88.22 201.001 87.6 200.321 87C199.761 87.4 199.141 87.98 198.461 88.74C197.821 89.46 197.241 90.18 196.721 90.9C196.201 91.58 195.821 92.1 195.581 92.46Z" fill="black"/>
<path d="M131.5 15L132.959 19.4914H137.682L133.861 22.2672L135.321 26.7586L131.5 23.9828L127.679 26.7586L129.139 22.2672L125.318 19.4914H130.041L131.5 15Z" fill="black"/>
<path d="M106.5 4L109.082 11.9463H117.437L110.678 16.8574L113.26 24.8037L106.5 19.8926L99.7405 24.8037L102.322 16.8574L95.5628 11.9463H103.918L106.5 4Z" fill="black"/>
<path d="M81.5 16L82.9593 20.4914H87.6819L83.8613 23.2672L85.3206 27.7586L81.5 24.9828L77.6794 27.7586L79.1387 23.2672L75.3181 20.4914H80.0407L81.5 16Z" fill="black"/>
<path fill-rule="evenodd" clip-rule="evenodd" d="M70.5155 40.7661C70.9638 41.7496 71.7117 42.7062 72.8963 43.2869C74.108 43.8808 75.9699 44.3393 77.8313 44.6699C79.6796 44.9981 81.4952 45.1948 82.6028 45.2754L104.884 45.6584L105.731 42.3367L133.26 42.8099L139.867 44.3878L142.945 43.0082L143.238 43.3249L139.944 44.8013L133.17 43.1836L106.18 42.7197L105.332 46.0414L82.5752 45.6502L82.5647 45.6495C81.4348 45.5676 79.5876 45.3678 77.7054 45.0336C75.8306 44.7006 73.8884 44.2287 72.5921 43.5933C71.2686 42.9446 70.4702 41.8977 70.0045 40.876C69.5377 39.852 69.3936 38.8283 69.4045 38.1929L69.4078 38.0053L99.3374 38.5198L106.034 39.747L126.531 40.0993L140.047 39.2142L143.26 40.4069L143.013 40.7379L139.943 39.5984L126.556 40.475L105.965 40.1211L99.2683 38.8939L69.9425 38.3898C69.9608 38.9953 70.1123 39.8814 70.5155 40.7661ZM80.7804 61.5549L88.556 61.6885L94.4729 59.2187L98.9129 57.7889L118.743 58.1297L137.627 59.9329L142.558 58.6012L142.605 55.8786C140.834 55.2594 135.851 54.3957 129.123 55.7097C122.21 57.0597 117.792 56.1779 116.323 55.4978L104.973 55.3027L94.5782 56.6208L88.6849 53.1692L72.6018 52.8928L84.8652 56.0748L84.7714 56.4383L72.7341 56.2313L84.8054 59.0374L84.7205 59.403L72.3703 59.1907L80.7804 61.5549ZM70.799 59.1517L70.8996 58.7901L82.9369 58.997L70.8656 56.191L70.9505 55.8254L83.1776 56.0356L70.9141 52.8535L71.0079 52.4901L88.8805 52.7973L94.7245 56.2201L104.924 54.9266L116.49 55.1254L116.558 55.1584C117.775 55.7551 122.041 56.7018 128.973 55.3481C136.009 53.9741 141.229 54.9283 143.001 55.602L143.145 55.6569L143.09 58.8614L137.698 60.3178L118.707 58.5044L99.0303 58.1662L94.7279 59.5517L88.7036 62.0663L80.6765 61.9284L70.799 59.1517Z" fill="black" stroke="black" stroke-width="2"/>
<path d="M42.6942 135.148V141H40.7802V126.04H45.4662C46.8742 126.04 47.9596 126.414 48.7222 127.162C49.4996 127.895 49.8882 128.878 49.8882 130.11V131.056C49.8882 131.936 49.6829 132.699 49.2722 133.344C48.8762 133.989 48.3042 134.466 47.5562 134.774C48.1869 135.786 48.7736 136.813 49.3162 137.854C49.8589 138.895 50.3576 139.944 50.8122 141H48.6122C47.7762 139.005 46.8009 137.055 45.6862 135.148H42.6942ZM45.4662 127.8H42.6942V133.388H45.4662C46.2142 133.388 46.8082 133.183 47.2482 132.772C47.6882 132.347 47.9082 131.775 47.9082 131.056V130.11C47.9082 129.377 47.6882 128.812 47.2482 128.416C46.8082 128.005 46.2142 127.8 45.4662 127.8ZM67.1441 139.218V141H58.7841V126.04H66.9241V127.844H60.6981V132.53H66.2641V134.334H60.6981V139.218H67.1441ZM78.3207 139.504C79.2447 139.504 79.956 139.306 80.4547 138.91C80.9533 138.499 81.2027 137.905 81.2027 137.128C81.2027 136.483 81.0267 135.94 80.6747 135.5C80.3373 135.06 79.78 134.723 79.0027 134.488L77.2207 133.96C76.106 133.623 75.2847 133.117 74.7567 132.442C74.2287 131.753 73.9647 130.909 73.9647 129.912C73.9647 129.149 74.1113 128.46 74.4047 127.844C74.7127 127.228 75.1967 126.737 75.8567 126.37C76.5313 126.003 77.4113 125.82 78.4967 125.82C79.1567 125.82 79.8387 125.901 80.5427 126.062C81.2467 126.209 81.958 126.451 82.6767 126.788L82.0607 128.438C81.3567 128.13 80.7187 127.91 80.1467 127.778C79.5893 127.631 79.054 127.558 78.5407 127.558C77.7047 127.558 77.052 127.734 76.5827 128.086C76.128 128.423 75.9007 128.988 75.9007 129.78C75.9007 130.352 76.0547 130.836 76.3627 131.232C76.6707 131.613 77.2207 131.929 78.0127 132.178L79.7947 132.706C82.024 133.366 83.1387 134.789 83.1387 136.974C83.1387 138.235 82.7573 139.262 81.9947 140.054C81.232 140.831 80.0073 141.22 78.3207 141.22C77.6313 141.22 76.898 141.139 76.1207 140.978C75.358 140.802 74.566 140.531 73.7447 140.164L74.3387 138.536C75.116 138.888 75.8127 139.137 76.4287 139.284C77.0593 139.431 77.69 139.504 78.3207 139.504ZM89.1366 127.844V126.04H99.7626V127.844H95.4066V141H93.4926V127.844H89.1366ZM117.353 131.87V135.148C117.353 137.011 116.884 138.492 115.945 139.592C115.021 140.677 113.686 141.22 111.941 141.22C110.196 141.22 108.854 140.677 107.915 139.592C106.991 138.492 106.529 137.011 106.529 135.148V131.87C106.529 130.022 106.991 128.555 107.915 127.47C108.854 126.37 110.196 125.82 111.941 125.82C113.686 125.82 115.021 126.37 115.945 127.47C116.884 128.555 117.353 130.022 117.353 131.87ZM115.373 131.87C115.373 130.506 115.08 129.457 114.493 128.724C113.921 127.976 113.07 127.602 111.941 127.602C110.826 127.602 109.976 127.976 109.389 128.724C108.802 129.457 108.509 130.506 108.509 131.87V135.148C108.509 136.527 108.802 137.59 109.389 138.338C109.976 139.086 110.826 139.46 111.941 139.46C113.07 139.46 113.921 139.086 114.493 138.338C115.08 137.59 115.373 136.527 115.373 135.148V131.87ZM128.116 135.148V141H126.202V126.04H130.888C132.296 126.04 133.381 126.414 134.144 127.162C134.921 127.895 135.31 128.878 135.31 130.11V131.056C135.31 131.936 135.105 132.699 134.694 133.344C134.298 133.989 133.726 134.466 132.978 134.774C133.609 135.786 134.195 136.813 134.738 137.854C135.281 138.895 135.779 139.944 136.234 141H134.034C133.198 139.005 132.223 137.055 131.108 135.148H128.116ZM130.888 127.8H128.116V133.388H130.888C131.636 133.388 132.23 133.183 132.67 132.772C133.11 132.347 133.33 131.775 133.33 131.056V130.11C133.33 129.377 133.11 128.812 132.67 128.416C132.23 128.005 131.636 127.8 130.888 127.8ZM152.126 141L151.004 137.524H145.328L144.206 141H142.336L147.308 126.04H149.112L154.106 141H152.126ZM146.714 133.212L145.878 135.786H150.432L149.596 133.212L148.166 128.592L146.714 133.212ZM161.694 141V126.04H163.696C165.031 127.947 166.256 129.868 167.37 131.804C168.5 133.725 169.556 135.735 170.538 137.832L170.318 132.112V126.04H172.188V141H170.186C169.16 138.859 168.096 136.776 166.996 134.752C165.911 132.713 164.723 130.726 163.432 128.79L163.564 134.884V141H161.694Z" fill="black"/>
<path d="M25 57.5L33 40.5L53.5 18L81.5 1H113.5C116.667 1 123.4 1 125 1C126.6 1 138.333 5.33333 144 7.5C148 9 158.8 15.4 170 29C181.2 42.6 186 52.3333 187 55.5" stroke="black"/>
<path d="M55 144L78.5 154.5L97 161C103.167 161 115.8 161 117 161C137 155.8 154.333 147.5 160.5 144" stroke="black"/>
<path d="M47.9755 60C55.1755 46.4 62.3088 39.6667 64.9755 38L79.9755 25L99.9755 20L125.975 25L152.975 45L167.975 76V98L152.975 123C143.975 130 124.575 144 118.975 144H90.9755L57.9755 123L47.9755 104C44.9755 95 40.7755 73.6 47.9755 60Z" stroke="black"/>
</svg>
